%TF.GenerationSoftware,Altium Limited,Altium Designer,24.10.1 (45)*%
G04 Layer_Color=65535*
%FSLAX45Y45*%
%MOMM*%
%TF.SameCoordinates,0DFC8F11-482D-4AB8-A3BE-AF813C361F11*%
%TF.FilePolarity,Positive*%
%TF.FileFunction,Legend,Top*%
%TF.Part,Single*%
G01*
G75*
%TA.AperFunction,NonConductor*%
%ADD29C,0.20000*%
%ADD41C,0.25000*%
D29*
X3362100Y2935400D02*
G03*
X3362100Y2935400I-10000J0D01*
G01*
X2606000Y3075500D02*
Y3209500D01*
X2479000Y3075500D02*
Y3209500D01*
X2471500Y2898000D02*
Y3032000D01*
X2598500Y2898000D02*
Y3032000D01*
X2595000Y3087500D02*
X2815000D01*
X2595000Y3027500D02*
X2815000D01*
Y3087500D01*
X2595000Y3027500D02*
Y3087500D01*
X2515633Y3188933D02*
Y3298933D01*
X2387500Y3190000D02*
Y3300000D01*
X2378876Y2968876D02*
Y3136124D01*
X2526124Y2968876D02*
Y3136124D01*
X3348750Y3385000D02*
Y3755000D01*
X3028750Y3385000D02*
X3348750D01*
X3028750D02*
Y3755000D01*
X3348750D01*
X3030027Y2563000D02*
X3315027D01*
X2515020D02*
X2800020D01*
X2515020Y2813000D02*
Y2852999D01*
Y2563000D02*
Y2593000D01*
Y2852999D02*
X3315027D01*
Y2563000D02*
Y2593000D01*
Y2813000D02*
Y2852999D01*
X2941000Y3152500D02*
Y3252500D01*
X2814000Y3152500D02*
Y3252500D01*
X2977900Y2935400D02*
X3305000D01*
X2977900D02*
Y3309600D01*
X3352100D01*
Y2982500D02*
Y3309600D01*
X3305000Y2935400D02*
X3352100Y2982500D01*
X3220000Y3287500D02*
X3320000D01*
X3220000Y3432500D02*
X3320000D01*
X2745000Y3420000D02*
Y3422500D01*
Y3732500D02*
Y3735000D01*
X2430000D02*
X2482500D01*
X2692500D02*
X2745000D01*
X2430000Y3420000D02*
Y3422500D01*
Y3732500D02*
Y3735000D01*
Y3420000D02*
X2482500D01*
X2692500D02*
X2745000D01*
X2756708Y3588501D02*
Y3688500D01*
X2883708Y3588501D02*
Y3688500D01*
X2530000Y3284000D02*
X2630000D01*
X2530000Y3411000D02*
X2630000D01*
X2889000Y3525000D02*
Y3625000D01*
X3016000Y3525000D02*
Y3625000D01*
X3306500Y2805000D02*
Y2905000D01*
X3433500Y2805000D02*
Y2905000D01*
X2960000Y2816500D02*
X3060000D01*
X2960000Y2943500D02*
X3060000D01*
D41*
X2575000Y2935000D02*
G03*
X2575000Y2935000I-12500J0D01*
G01*
X2462500Y3110000D02*
G03*
X2462500Y3110000I-12500J0D01*
G01*
X3293750Y3815000D02*
G03*
X3293750Y3815000I-12500J0D01*
G01*
X2850000Y3465000D02*
G03*
X2850000Y3465000I-12500J0D01*
G01*
%TF.MD5,57da2009f215dd20c3b7f239b0e8b1b5*%
M02*
