%TF.GenerationSoftware,Altium Limited,Altium Designer,24.10.1 (45)*%
G04 Layer_Color=8388736*
%FSLAX45Y45*%
%MOMM*%
%TF.SameCoordinates,0DFC8F11-482D-4AB8-A3BE-AF813C361F11*%
%TF.FilePolarity,Negative*%
%TF.FileFunction,Soldermask,Top*%
%TF.Part,Single*%
G01*
G75*
%TA.AperFunction,SMDPad,CuDef*%
%ADD16R,0.52000X0.52000*%
%TA.AperFunction,ConnectorPad*%
%ADD18R,0.50000X0.70000*%
%ADD19R,0.67248X0.71535*%
%ADD20R,0.35000X0.57500*%
%ADD21R,0.57500X0.35000*%
%TA.AperFunction,SMDPad,CuDef*%
%ADD24R,0.40000X0.50000*%
%TA.AperFunction,ConnectorPad*%
%ADD26R,0.35000X0.45000*%
%ADD27R,0.45000X0.35000*%
%TA.AperFunction,SMDPad,CuDef*%
%ADD28R,0.52000X0.52000*%
%ADD45C,1.20320*%
G04:AMPARAMS|DCode=46|XSize=0.6532mm|YSize=1.2532mm|CornerRadius=0.1511mm|HoleSize=0mm|Usage=FLASHONLY|Rotation=180.000|XOffset=0mm|YOffset=0mm|HoleType=Round|Shape=RoundedRectangle|*
%AMROUNDEDRECTD46*
21,1,0.65320,0.95100,0,0,180.0*
21,1,0.35100,1.25320,0,0,180.0*
1,1,0.30220,-0.17550,0.47550*
1,1,0.30220,0.17550,0.47550*
1,1,0.30220,0.17550,-0.47550*
1,1,0.30220,-0.17550,-0.47550*
%
%ADD46ROUNDEDRECTD46*%
%ADD47R,0.65320X0.70320*%
%TA.AperFunction,BGAPad,CuDef*%
%ADD48C,0.44520*%
%TA.AperFunction,SMDPad,CuDef*%
%ADD49R,0.70320X0.65320*%
%TA.AperFunction,ComponentPad*%
%ADD50C,1.04320*%
%ADD51O,1.05320X2.10320*%
%TA.AperFunction,ViaPad*%
%ADD52C,0.50320*%
%ADD53C,0.40320*%
%ADD54C,0.70320*%
D16*
X2542500Y3182500D02*
D03*
Y3102500D02*
D03*
X2535000Y2925000D02*
D03*
Y3005000D02*
D03*
X2877500Y3242500D02*
D03*
Y3162500D02*
D03*
X2820208Y3598501D02*
D03*
Y3678500D02*
D03*
X2952500Y3535000D02*
D03*
Y3615000D02*
D03*
X3370000Y2815000D02*
D03*
Y2895000D02*
D03*
D18*
X2452500Y3290000D02*
D03*
Y3200000D02*
D03*
D19*
Y3100357D02*
D03*
Y3004644D02*
D03*
D20*
X3263750Y3686250D02*
D03*
X3213750D02*
D03*
X3163750D02*
D03*
X3113750D02*
D03*
Y3453750D02*
D03*
X3163750D02*
D03*
X3213750D02*
D03*
X3263750D02*
D03*
D21*
X3097500Y3620000D02*
D03*
Y3570000D02*
D03*
Y3520000D02*
D03*
X3280000D02*
D03*
Y3570000D02*
D03*
Y3620000D02*
D03*
D24*
X3310000Y3360000D02*
D03*
X3230000D02*
D03*
D26*
X2637500Y3455000D02*
D03*
X2587500D02*
D03*
X2537500D02*
D03*
Y3700000D02*
D03*
X2587500D02*
D03*
X2637500D02*
D03*
D27*
X2465000Y3477500D02*
D03*
Y3527500D02*
D03*
Y3577500D02*
D03*
Y3627500D02*
D03*
Y3677500D02*
D03*
X2710000D02*
D03*
Y3627500D02*
D03*
Y3577500D02*
D03*
Y3527500D02*
D03*
Y3477500D02*
D03*
D28*
X2620000Y3347500D02*
D03*
X2540000D02*
D03*
X3050000Y2880000D02*
D03*
X2970000D02*
D03*
D45*
X2892500Y2970000D02*
D03*
D46*
X2640000Y3180000D02*
D03*
X2770000D02*
D03*
Y2935000D02*
D03*
X2705000D02*
D03*
X2640000D02*
D03*
D47*
X3370000Y3505000D02*
D03*
Y3430000D02*
D03*
D48*
X3305000Y2982500D02*
D03*
X3265000D02*
D03*
X3225000D02*
D03*
X3185000D02*
D03*
X3145000D02*
D03*
X3105000D02*
D03*
X3065000D02*
D03*
X3025000D02*
D03*
X3305000Y3022500D02*
D03*
X3265000D02*
D03*
X3225000D02*
D03*
X3185000D02*
D03*
X3145000D02*
D03*
X3105000D02*
D03*
X3065000D02*
D03*
X3025000D02*
D03*
X3305000Y3062500D02*
D03*
X3265000D02*
D03*
X3225000D02*
D03*
X3185000D02*
D03*
X3145000D02*
D03*
X3105000D02*
D03*
X3065000D02*
D03*
X3025000D02*
D03*
X3305000Y3102500D02*
D03*
X3265000D02*
D03*
X3225000D02*
D03*
X3185000D02*
D03*
X3145000D02*
D03*
X3105000D02*
D03*
X3065000D02*
D03*
X3025000D02*
D03*
X3305000Y3142500D02*
D03*
X3265000D02*
D03*
X3225000D02*
D03*
X3185000D02*
D03*
X3145000D02*
D03*
X3105000D02*
D03*
X3065000D02*
D03*
X3025000D02*
D03*
X3305000Y3182500D02*
D03*
X3265000D02*
D03*
X3225000D02*
D03*
X3185000D02*
D03*
X3145000D02*
D03*
X3105000D02*
D03*
X3065000D02*
D03*
X3025000D02*
D03*
X3305000Y3222500D02*
D03*
X3265000D02*
D03*
X3225000D02*
D03*
X3185000D02*
D03*
X3145000D02*
D03*
X3105000D02*
D03*
X3065000D02*
D03*
X3025000D02*
D03*
X3305000Y3262500D02*
D03*
X3265000D02*
D03*
X3225000D02*
D03*
X3185000D02*
D03*
X3145000D02*
D03*
X3105000D02*
D03*
X3065000D02*
D03*
X3025000D02*
D03*
D49*
X3130000Y2880000D02*
D03*
X3205000D02*
D03*
X2800000Y3410000D02*
D03*
X2875000D02*
D03*
X2800000Y3327500D02*
D03*
X2875000D02*
D03*
D50*
X3045000Y2725000D02*
D03*
X2785000D02*
D03*
X2980000Y2625000D02*
D03*
X2915000Y2725000D02*
D03*
X2850000Y2625000D02*
D03*
D51*
X3272500Y2703000D02*
D03*
X2557500D02*
D03*
D52*
X3365369Y3142435D02*
D03*
X3348241Y3191932D02*
D03*
X3359855Y2985286D02*
D03*
X2837500Y3242500D02*
D03*
X3198424Y3518698D02*
D03*
X3330000Y3510000D02*
D03*
X2455000Y2915000D02*
D03*
X2470000Y2822500D02*
D03*
X3380000Y2755000D02*
D03*
X2940000Y3332500D02*
D03*
X3319314Y3299285D02*
D03*
X3290267Y3389954D02*
D03*
X3261908Y2871523D02*
D03*
X2768910Y3698548D02*
D03*
X3350000Y3707500D02*
D03*
X3348500Y2887500D02*
D03*
X3089960Y2827446D02*
D03*
X2967500Y2840000D02*
D03*
X3361587Y3626587D02*
D03*
X3362835Y3575316D02*
D03*
X3225000Y2942500D02*
D03*
X2830775Y3525289D02*
D03*
X2958057Y3452277D02*
D03*
X3073618Y3410042D02*
D03*
X2540000Y3627500D02*
D03*
X3032500Y3562500D02*
D03*
X2639383Y3634152D02*
D03*
X2913500Y3602500D02*
D03*
X2855000Y3077500D02*
D03*
X2859704Y3135021D02*
D03*
X2538750Y3499000D02*
D03*
X2739364Y3624204D02*
D03*
X2632500Y3407500D02*
D03*
X2585150Y3653918D02*
D03*
D53*
X3065000Y3102500D02*
D03*
X3265000Y3022500D02*
D03*
X3105000D02*
D03*
X3065000Y3182500D02*
D03*
X3105000Y3222500D02*
D03*
X3065000Y3022500D02*
D03*
X3025000D02*
D03*
X3105000Y3102500D02*
D03*
X3065000Y3142500D02*
D03*
X3145000Y2982500D02*
D03*
X3185000Y3022500D02*
D03*
Y3062500D02*
D03*
Y3102500D02*
D03*
X3225000D02*
D03*
X3305000Y3062500D02*
D03*
X3225000D02*
D03*
Y3022500D02*
D03*
D54*
X2540000Y3242500D02*
D03*
X2832500Y2867500D02*
D03*
%TF.MD5,b639842f76845265b9d7aa5e4a42ffd1*%
M02*
