%TF.GenerationSoftware,Altium Limited,Altium Designer,24.10.1 (45)*%
G04 Layer_Color=32896*
%FSLAX45Y45*%
%MOMM*%
%TF.SameCoordinates,0DFC8F11-482D-4AB8-A3BE-AF813C361F11*%
%TF.FilePolarity,Positive*%
%TF.FileFunction,Legend,Bot*%
%TF.Part,Single*%
G01*
G75*
%TA.AperFunction,NonConductor*%
%ADD29C,0.20000*%
%ADD41C,0.25000*%
%ADD42C,0.25400*%
%ADD43C,0.10000*%
%ADD44C,0.12000*%
D29*
X3405500Y2972500D02*
Y3607500D01*
X2805500D02*
X3405500D01*
X2805500Y2972500D02*
Y3607500D01*
Y2972500D02*
X3405500D01*
X2471067Y2906867D02*
X2581067D01*
X2470000Y3035000D02*
X2580000D01*
X2618876Y3038624D02*
X2786124D01*
X2618876Y2891376D02*
X2786124D01*
D41*
X3381000Y2852500D02*
G03*
X3381000Y2852500I-12500J0D01*
G01*
X2672500Y2972500D02*
G03*
X2672500Y2972500I-12500J0D01*
G01*
D42*
X2801560Y3243380D02*
G03*
X2801560Y3243380I-3600J0D01*
G01*
X2795420Y3784400D02*
G03*
X2795420Y3784400I-2540J0D01*
G01*
X2418012Y3764080D02*
G03*
X2418012Y3764080I-3592J0D01*
G01*
X3122900Y2770400D02*
X3189545D01*
X2642900Y2766223D02*
X2709545D01*
X2676222Y2799545D02*
Y2732900D01*
D43*
X2595000Y3282500D02*
G03*
X2595000Y3272500I0J-5000D01*
G01*
D02*
G03*
X2595000Y3282500I0J5000D01*
G01*
D44*
X2760000Y3255000D02*
Y3273000D01*
X2460000Y3255000D02*
X2760000D01*
X2460000D02*
Y3273000D01*
X2760000Y3737000D02*
Y3755000D01*
X2460000D02*
X2760000D01*
X2460000Y3737000D02*
Y3755000D01*
X2760000Y3737000D02*
X2789500D01*
%TF.MD5,70335d0ace84170605bd442ef1ba07fd*%
M02*
