%TF.GenerationSoftware,Altium Limited,Altium Designer,24.10.1 (45)*%
G04 Layer_Color=128*
%FSLAX45Y45*%
%MOMM*%
%TF.SameCoordinates,0DFC8F11-482D-4AB8-A3BE-AF813C361F11*%
%TF.FilePolarity,Positive*%
%TF.FileFunction,Paste,Bot*%
%TF.Part,Single*%
G01*
G75*
%TA.AperFunction,SMDPad,CuDef*%
%ADD15C,1.00000*%
%ADD25R,0.50000X0.45000*%
%ADD35R,1.31000X0.53000*%
%TA.AperFunction,ConnectorPad*%
%ADD36R,0.45000X0.85000*%
%TA.AperFunction,SMDPad,CuDef*%
%ADD37O,1.00000X1.52400*%
%ADD38R,0.80000X0.70000*%
%ADD39R,0.70000X0.50000*%
%ADD40R,0.71535X0.67248*%
D15*
X2472500Y3150000D02*
D03*
X2470000Y2822500D02*
D03*
D25*
X2665000Y2852500D02*
D03*
X2590000D02*
D03*
D35*
X2730000Y3692500D02*
D03*
Y3567500D02*
D03*
Y3442500D02*
D03*
Y3317500D02*
D03*
X2490000D02*
D03*
Y3442500D02*
D03*
Y3567500D02*
D03*
Y3692500D02*
D03*
D36*
X3296000Y2895000D02*
D03*
X3169000D02*
D03*
X3042000D02*
D03*
X2915000D02*
D03*
Y3685000D02*
D03*
X3042000D02*
D03*
X3169000D02*
D03*
X3296000D02*
D03*
D37*
X3140000Y2605000D02*
D03*
X2697500Y2610000D02*
D03*
D38*
X2595000Y3192500D02*
D03*
X2725000D02*
D03*
Y3092500D02*
D03*
X2595000D02*
D03*
D39*
X2480000Y2970000D02*
D03*
X2570000D02*
D03*
D40*
X2654644Y2965000D02*
D03*
X2750356D02*
D03*
%TF.MD5,6edd700e9cd236a4d5d2ebdf7d724091*%
M02*
