%TF.GenerationSoftware,Altium Limited,Altium Designer,24.10.1 (45)*%
G04 Layer_Color=8421504*
%FSLAX45Y45*%
%MOMM*%
%TF.SameCoordinates,0DFC8F11-482D-4AB8-A3BE-AF813C361F11*%
%TF.FilePolarity,Positive*%
%TF.FileFunction,Paste,Top*%
%TF.Part,Single*%
G01*
G75*
%TA.AperFunction,SMDPad,CuDef*%
%ADD15C,1.00000*%
%ADD16R,0.52000X0.52000*%
G04:AMPARAMS|DCode=17|XSize=0.45mm|YSize=1.05mm|CornerRadius=0.0495mm|HoleSize=0mm|Usage=FLASHONLY|Rotation=180.000|XOffset=0mm|YOffset=0mm|HoleType=Round|Shape=RoundedRectangle|*
%AMROUNDEDRECTD17*
21,1,0.45000,0.95100,0,0,180.0*
21,1,0.35100,1.05000,0,0,180.0*
1,1,0.09900,-0.17550,0.47550*
1,1,0.09900,0.17550,0.47550*
1,1,0.09900,0.17550,-0.47550*
1,1,0.09900,-0.17550,-0.47550*
%
%ADD17ROUNDEDRECTD17*%
%TA.AperFunction,ConnectorPad*%
%ADD18R,0.50000X0.70000*%
%ADD19R,0.67248X0.71535*%
%TA.AperFunction,SMDPad,CuDef*%
%ADD22R,0.45000X0.50000*%
%TA.AperFunction,BGAPad,CuDef*%
%ADD23C,0.24200*%
%TA.AperFunction,SMDPad,CuDef*%
%ADD24R,0.40000X0.50000*%
%ADD25R,0.50000X0.45000*%
%TA.AperFunction,ConnectorPad*%
%ADD26R,0.35000X0.45000*%
%ADD27R,0.45000X0.35000*%
%TA.AperFunction,SMDPad,CuDef*%
%ADD28R,0.52000X0.52000*%
%TA.AperFunction,NonConductor*%
%ADD59R,0.30422X0.52922*%
%ADD60R,0.30422X0.52922*%
%ADD61R,0.52922X0.30422*%
%ADD62R,0.52922X0.30422*%
D15*
X2892500Y2970000D02*
D03*
D16*
X2542500Y3182500D02*
D03*
Y3102500D02*
D03*
X2535000Y2925000D02*
D03*
Y3005000D02*
D03*
X2877500Y3242500D02*
D03*
Y3162500D02*
D03*
X2820208Y3598501D02*
D03*
Y3678500D02*
D03*
X2952500Y3535000D02*
D03*
Y3615000D02*
D03*
X3370000Y2815000D02*
D03*
Y2895000D02*
D03*
D17*
X2640000Y3180000D02*
D03*
X2770000D02*
D03*
Y2935000D02*
D03*
X2705000D02*
D03*
X2640000D02*
D03*
D18*
X2452500Y3290000D02*
D03*
Y3200000D02*
D03*
D19*
Y3100357D02*
D03*
Y3004644D02*
D03*
D22*
X3370000Y3505000D02*
D03*
Y3430000D02*
D03*
D23*
X3305000Y2982500D02*
D03*
X3265000D02*
D03*
X3225000D02*
D03*
X3185000D02*
D03*
X3145000D02*
D03*
X3105000D02*
D03*
X3065000D02*
D03*
X3025000D02*
D03*
X3305000Y3022500D02*
D03*
X3265000D02*
D03*
X3225000D02*
D03*
X3185000D02*
D03*
X3145000D02*
D03*
X3105000D02*
D03*
X3065000D02*
D03*
X3025000D02*
D03*
X3305000Y3062500D02*
D03*
X3265000D02*
D03*
X3225000D02*
D03*
X3185000D02*
D03*
X3145000D02*
D03*
X3105000D02*
D03*
X3065000D02*
D03*
X3025000D02*
D03*
X3305000Y3102500D02*
D03*
X3265000D02*
D03*
X3225000D02*
D03*
X3185000D02*
D03*
X3145000D02*
D03*
X3105000D02*
D03*
X3065000D02*
D03*
X3025000D02*
D03*
X3305000Y3142500D02*
D03*
X3265000D02*
D03*
X3225000D02*
D03*
X3185000D02*
D03*
X3145000D02*
D03*
X3105000D02*
D03*
X3065000D02*
D03*
X3025000D02*
D03*
X3305000Y3182500D02*
D03*
X3265000D02*
D03*
X3225000D02*
D03*
X3185000D02*
D03*
X3145000D02*
D03*
X3105000D02*
D03*
X3065000D02*
D03*
X3025000D02*
D03*
X3305000Y3222500D02*
D03*
X3265000D02*
D03*
X3225000D02*
D03*
X3185000D02*
D03*
X3145000D02*
D03*
X3105000D02*
D03*
X3065000D02*
D03*
X3025000D02*
D03*
X3305000Y3262500D02*
D03*
X3265000D02*
D03*
X3225000D02*
D03*
X3185000D02*
D03*
X3145000D02*
D03*
X3105000D02*
D03*
X3065000D02*
D03*
X3025000D02*
D03*
D24*
X3310000Y3360000D02*
D03*
X3230000D02*
D03*
D25*
X3130000Y2880000D02*
D03*
X3205000D02*
D03*
X2800000Y3410000D02*
D03*
X2875000D02*
D03*
X2800000Y3327500D02*
D03*
X2875000D02*
D03*
D26*
X2637500Y3455000D02*
D03*
X2587500D02*
D03*
X2537500D02*
D03*
Y3700000D02*
D03*
X2587500D02*
D03*
X2637500D02*
D03*
D27*
X2465000Y3477500D02*
D03*
Y3527500D02*
D03*
Y3577500D02*
D03*
Y3627500D02*
D03*
Y3677500D02*
D03*
X2710000D02*
D03*
Y3627500D02*
D03*
Y3577500D02*
D03*
Y3527500D02*
D03*
Y3477500D02*
D03*
D28*
X2620000Y3347500D02*
D03*
X2540000D02*
D03*
X3050000Y2880000D02*
D03*
X2970000D02*
D03*
D59*
X3263753Y3686244D02*
D03*
X3113747Y3686255D02*
D03*
Y3453755D02*
D03*
X3263753Y3453744D02*
D03*
D60*
X3213775Y3686250D02*
D03*
X3163782D02*
D03*
Y3453751D02*
D03*
X3213775D02*
D03*
D61*
X3097497Y3619994D02*
D03*
X3097509Y3520006D02*
D03*
X3280002D02*
D03*
X3279990Y3619994D02*
D03*
D62*
X3097532Y3570000D02*
D03*
X3280025D02*
D03*
%TF.MD5,8989f0bbcd4cfd27f7a3660ae4f8e926*%
M02*
