%TF.GenerationSoftware,Altium Limited,Altium Designer,24.10.1 (45)*%
G04 Layer_Physical_Order=2*
G04 Layer_Color=36540*
%FSLAX45Y45*%
%MOMM*%
%TF.SameCoordinates,0DFC8F11-482D-4AB8-A3BE-AF813C361F11*%
%TF.FilePolarity,Positive*%
%TF.FileFunction,Copper,L2,Inr,Signal*%
%TF.Part,Single*%
G01*
G75*
%TA.AperFunction,ComponentPad*%
%ADD30C,0.84000*%
%ADD31O,0.85000X1.90000*%
%TA.AperFunction,ViaPad*%
%ADD32C,0.30000*%
%ADD33C,0.20000*%
%ADD34C,0.50000*%
G36*
X2438298Y3787497D02*
X2438299Y3787498D01*
X3387500Y3787499D01*
X3392552Y3787500D01*
X3401888Y3783633D01*
X3409033Y3776488D01*
X3410094Y3773926D01*
X3412899Y3762100D01*
D01*
X3412900Y3750350D01*
Y2993455D01*
X3400255Y2993322D01*
X3394104Y3008171D01*
X3382740Y3019535D01*
X3372555Y3023754D01*
Y2985286D01*
Y2946818D01*
X3382740Y2951037D01*
X3394104Y2962401D01*
X3400255Y2977250D01*
X3412900Y2977116D01*
Y2795828D01*
X3400200Y2790361D01*
X3392700Y2793468D01*
Y2755000D01*
Y2716532D01*
X3400200Y2719639D01*
X3412900Y2714173D01*
Y2532847D01*
X3409033Y2523512D01*
X3401888Y2516367D01*
X3392552Y2512500D01*
X2433247D01*
X2423912Y2516367D01*
X2416767Y2523512D01*
X2412900Y2532847D01*
Y2882005D01*
X2425600Y2887266D01*
X2432115Y2880751D01*
X2442300Y2876532D01*
Y2915000D01*
Y2953468D01*
X2432115Y2949249D01*
X2425600Y2942734D01*
X2412900Y2947995D01*
Y3765000D01*
X2413188Y3769763D01*
X2417368Y3778344D01*
X2424512Y3784673D01*
X2433534Y3787785D01*
X2438298Y3787497D01*
D02*
G37*
%LPC*%
G36*
X3355967Y3737500D02*
X3344032D01*
X3333006Y3732933D01*
X3324567Y3724494D01*
X3320000Y3713468D01*
Y3701533D01*
X3324567Y3690506D01*
X3333006Y3682067D01*
X3344032Y3677500D01*
X3355967D01*
X3366994Y3682067D01*
X3375433Y3690506D01*
X3380000Y3701533D01*
Y3713468D01*
X3375433Y3724494D01*
X3366994Y3732933D01*
X3355967Y3737500D01*
D02*
G37*
G36*
X2774877Y3728548D02*
X2762942D01*
X2751916Y3723980D01*
X2743477Y3715541D01*
X2738910Y3704515D01*
Y3692580D01*
X2743477Y3681554D01*
X2751916Y3673115D01*
X2762942Y3668548D01*
X2774877D01*
X2785903Y3673115D01*
X2794342Y3681554D01*
X2798910Y3692580D01*
Y3704515D01*
X2794342Y3715541D01*
X2785903Y3723980D01*
X2774877Y3728548D01*
D02*
G37*
G36*
X2591118Y3683918D02*
X2579183D01*
X2568157Y3679351D01*
X2559718Y3670911D01*
X2555150Y3659885D01*
X2549432Y3656065D01*
X2545967Y3657500D01*
X2534033D01*
X2523006Y3652933D01*
X2514567Y3644494D01*
X2510000Y3633467D01*
Y3621533D01*
X2514567Y3610506D01*
X2523006Y3602067D01*
X2534033Y3597500D01*
X2545967D01*
X2556994Y3602067D01*
X2565433Y3610506D01*
X2570000Y3621532D01*
X2575718Y3625353D01*
X2579183Y3623918D01*
X2591118D01*
X2597377Y3626510D01*
X2603625Y3627381D01*
X2612435Y3620816D01*
X2613951Y3617158D01*
X2622390Y3608719D01*
X2633416Y3604152D01*
X2645351D01*
X2656377Y3608719D01*
X2664816Y3617158D01*
X2669383Y3628184D01*
Y3640119D01*
X2664816Y3651145D01*
X2656377Y3659585D01*
X2645351Y3664152D01*
X2633416D01*
X2627157Y3661559D01*
X2620909Y3660688D01*
X2612098Y3667254D01*
X2610583Y3670911D01*
X2602144Y3679351D01*
X2591118Y3683918D01*
D02*
G37*
G36*
X2745331Y3654204D02*
X2733396D01*
X2722370Y3649637D01*
X2713931Y3641197D01*
X2709364Y3630171D01*
Y3618236D01*
X2713931Y3607210D01*
X2722370Y3598771D01*
X2733396Y3594204D01*
X2745331D01*
X2756357Y3598771D01*
X2764797Y3607210D01*
X2769364Y3618236D01*
Y3630171D01*
X2764797Y3641197D01*
X2756357Y3649637D01*
X2745331Y3654204D01*
D02*
G37*
G36*
X3045200Y3600968D02*
Y3575200D01*
X3070968D01*
X3066749Y3585385D01*
X3055385Y3596749D01*
X3045200Y3600968D01*
D02*
G37*
G36*
X3019800D02*
X3009615Y3596749D01*
X2998251Y3585385D01*
X2994032Y3575200D01*
X3019800D01*
Y3600968D01*
D02*
G37*
G36*
X2919468Y3632500D02*
X2907533D01*
X2896507Y3627933D01*
X2888067Y3619494D01*
X2883500Y3608468D01*
Y3596533D01*
X2888067Y3585506D01*
X2896507Y3577067D01*
X2907533Y3572500D01*
X2919468D01*
X2930494Y3577067D01*
X2938933Y3585506D01*
X2943500Y3596533D01*
Y3608468D01*
X2938933Y3619494D01*
X2930494Y3627933D01*
X2919468Y3632500D01*
D02*
G37*
G36*
X3367554Y3656587D02*
X3355619D01*
X3344593Y3652020D01*
X3336154Y3643580D01*
X3331587Y3632554D01*
Y3620619D01*
X3336154Y3609593D01*
X3344593Y3601154D01*
X3338265Y3593205D01*
X3337411Y3592319D01*
X3337402Y3592309D01*
X3332835Y3581283D01*
Y3569348D01*
X3337402Y3558322D01*
X3345841Y3549883D01*
X3356867Y3545316D01*
X3368802D01*
X3379828Y3549883D01*
X3388267Y3558322D01*
X3392834Y3569348D01*
Y3581283D01*
X3388267Y3592309D01*
X3379828Y3600748D01*
X3386156Y3608697D01*
X3387010Y3609584D01*
X3387019Y3609593D01*
X3391587Y3620619D01*
Y3632554D01*
X3387019Y3643580D01*
X3378580Y3652020D01*
X3367554Y3656587D01*
D02*
G37*
G36*
X2843475Y3563757D02*
Y3537989D01*
X2869243D01*
X2865024Y3548174D01*
X2853659Y3559538D01*
X2843475Y3563757D01*
D02*
G37*
G36*
X2818075D02*
X2807890Y3559538D01*
X2796525Y3548174D01*
X2792307Y3537989D01*
X2818075D01*
Y3563757D01*
D02*
G37*
G36*
X3070968Y3549800D02*
X3045200D01*
Y3524032D01*
X3055385Y3528251D01*
X3066749Y3539615D01*
X3070968Y3549800D01*
D02*
G37*
G36*
X3019800D02*
X2994032D01*
X2998251Y3539615D01*
X3009615Y3528251D01*
X3019800Y3524032D01*
Y3549800D01*
D02*
G37*
G36*
X3204392Y3548698D02*
X3192457D01*
X3181431Y3544131D01*
X3172991Y3535691D01*
X3168424Y3524665D01*
Y3512730D01*
X3172991Y3501704D01*
X3181431Y3493265D01*
X3192457Y3488698D01*
X3204392D01*
X3215418Y3493265D01*
X3223857Y3501704D01*
X3228424Y3512730D01*
Y3524665D01*
X3223857Y3535691D01*
X3215418Y3544131D01*
X3204392Y3548698D01*
D02*
G37*
G36*
X2869243Y3512589D02*
X2843475D01*
Y3486821D01*
X2853659Y3491040D01*
X2865024Y3502404D01*
X2869243Y3512589D01*
D02*
G37*
G36*
X2818075D02*
X2792307D01*
X2796525Y3502404D01*
X2807890Y3491040D01*
X2818075Y3486821D01*
Y3512589D01*
D02*
G37*
G36*
X3335967Y3540000D02*
X3324032D01*
X3313006Y3535433D01*
X3304567Y3526994D01*
X3300000Y3515968D01*
Y3504033D01*
X3304567Y3493006D01*
X3313006Y3484567D01*
X3324032Y3480000D01*
X3335967D01*
X3346994Y3484567D01*
X3355433Y3493006D01*
X3360000Y3504033D01*
Y3515968D01*
X3355433Y3526994D01*
X3346994Y3535433D01*
X3335967Y3540000D01*
D02*
G37*
G36*
X2544718Y3529000D02*
X2532783D01*
X2521756Y3524433D01*
X2513317Y3515994D01*
X2508750Y3504968D01*
Y3493033D01*
X2513317Y3482006D01*
X2521756Y3473567D01*
X2532783Y3469000D01*
X2544718D01*
X2555744Y3473567D01*
X2564183Y3482006D01*
X2568750Y3493033D01*
Y3504968D01*
X2564183Y3515994D01*
X2555744Y3524433D01*
X2544718Y3529000D01*
D02*
G37*
G36*
X2970757Y3490745D02*
Y3464977D01*
X2996525D01*
X2992306Y3475161D01*
X2980941Y3486526D01*
X2970757Y3490745D01*
D02*
G37*
G36*
X2945357D02*
X2935172Y3486526D01*
X2923807Y3475161D01*
X2919589Y3464977D01*
X2945357D01*
Y3490745D01*
D02*
G37*
G36*
X2645200Y3445968D02*
Y3420200D01*
X2670968D01*
X2666749Y3430385D01*
X2655385Y3441749D01*
X2645200Y3445968D01*
D02*
G37*
G36*
X2619800D02*
X2609615Y3441749D01*
X2598251Y3430385D01*
X2594032Y3420200D01*
X2619800D01*
Y3445968D01*
D02*
G37*
G36*
X2996525Y3439577D02*
X2970757D01*
Y3413809D01*
X2980941Y3418027D01*
X2992306Y3429392D01*
X2996525Y3439577D01*
D02*
G37*
G36*
X2945357D02*
X2919589D01*
X2923807Y3429392D01*
X2935172Y3418027D01*
X2945357Y3413809D01*
Y3439577D01*
D02*
G37*
G36*
X3302967Y3428422D02*
Y3402654D01*
X3328735D01*
X3324517Y3412839D01*
X3313152Y3424204D01*
X3302967Y3428422D01*
D02*
G37*
G36*
X3277567D02*
X3267383Y3424204D01*
X3256018Y3412839D01*
X3251799Y3402654D01*
X3277567D01*
Y3428422D01*
D02*
G37*
G36*
X3079586Y3440042D02*
X3067651D01*
X3056625Y3435475D01*
X3048185Y3427036D01*
X3043618Y3416010D01*
Y3404075D01*
X3048185Y3393049D01*
X3056625Y3384609D01*
X3067651Y3380042D01*
X3079586D01*
X3090612Y3384609D01*
X3099051Y3393049D01*
X3103618Y3404075D01*
Y3416010D01*
X3099051Y3427036D01*
X3090612Y3435475D01*
X3079586Y3440042D01*
D02*
G37*
G36*
X2670968Y3394800D02*
X2645200D01*
Y3369032D01*
X2655385Y3373251D01*
X2666749Y3384615D01*
X2670968Y3394800D01*
D02*
G37*
G36*
X2619800D02*
X2594032D01*
X2598251Y3384615D01*
X2609615Y3373251D01*
X2619800Y3369032D01*
Y3394800D01*
D02*
G37*
G36*
X3328735Y3377254D02*
X3302967D01*
Y3351486D01*
X3313152Y3355705D01*
X3324517Y3367070D01*
X3328735Y3377254D01*
D02*
G37*
G36*
X3277567D02*
X3251799D01*
X3256018Y3367070D01*
X3267383Y3355705D01*
X3277567Y3351486D01*
Y3377254D01*
D02*
G37*
G36*
X2945967Y3362500D02*
X2934032D01*
X2923006Y3357933D01*
X2914567Y3349494D01*
X2910000Y3338468D01*
Y3326533D01*
X2914567Y3315506D01*
X2923006Y3307067D01*
X2934032Y3302500D01*
X2945967D01*
X2956994Y3307067D01*
X2965433Y3315506D01*
X2970000Y3326533D01*
Y3338468D01*
X2965433Y3349494D01*
X2956994Y3357933D01*
X2945967Y3362500D01*
D02*
G37*
G36*
X3325281Y3329285D02*
X3313346D01*
X3302320Y3324718D01*
X3293881Y3316279D01*
X3289314Y3305253D01*
Y3293318D01*
X3293881Y3282292D01*
X3302320Y3273852D01*
X3313346Y3269285D01*
X3325281D01*
X3336308Y3273852D01*
X3344747Y3282292D01*
X3349314Y3293318D01*
Y3305253D01*
X3344747Y3316279D01*
X3336308Y3324718D01*
X3325281Y3329285D01*
D02*
G37*
G36*
X2843468Y3272500D02*
X2831533D01*
X2820506Y3267933D01*
X2812067Y3259494D01*
X2807500Y3248467D01*
Y3236533D01*
X2812067Y3225506D01*
X2820506Y3217067D01*
X2831533Y3212500D01*
X2843468D01*
X2854494Y3217067D01*
X2862933Y3225506D01*
X2867500Y3236533D01*
Y3248467D01*
X2862933Y3259494D01*
X2854494Y3267933D01*
X2843468Y3272500D01*
D02*
G37*
G36*
X3109973Y3247500D02*
X3100027D01*
X3090839Y3243694D01*
X3083806Y3236661D01*
X3080000Y3227473D01*
Y3217527D01*
X3080217Y3217003D01*
X3070497Y3207283D01*
X3069973Y3207500D01*
X3060027D01*
X3050839Y3203694D01*
X3043806Y3196661D01*
X3040000Y3187473D01*
Y3177527D01*
X3043806Y3168339D01*
X3049645Y3162500D01*
X3043806Y3156661D01*
X3040000Y3147473D01*
Y3137527D01*
X3043806Y3128339D01*
X3049645Y3122500D01*
X3043806Y3116661D01*
X3040000Y3107473D01*
Y3097527D01*
X3043806Y3088339D01*
X3050839Y3081306D01*
X3060027Y3077500D01*
X3069973D01*
X3079161Y3081306D01*
X3085000Y3087145D01*
X3090839Y3081306D01*
X3100027Y3077500D01*
X3109973D01*
X3119161Y3081306D01*
X3126194Y3088339D01*
X3130000Y3097527D01*
Y3107473D01*
X3126194Y3116661D01*
X3119161Y3123694D01*
X3109973Y3127500D01*
X3100027D01*
X3099503Y3127283D01*
X3089783Y3137003D01*
X3090000Y3137527D01*
Y3147473D01*
X3086194Y3156661D01*
X3080355Y3162500D01*
X3086194Y3168339D01*
X3090000Y3177527D01*
Y3187473D01*
X3089783Y3187997D01*
X3099503Y3197717D01*
X3100027Y3197500D01*
X3109973D01*
X3119161Y3201306D01*
X3126194Y3208339D01*
X3130000Y3217527D01*
Y3227473D01*
X3126194Y3236661D01*
X3119161Y3243694D01*
X3109973Y3247500D01*
D02*
G37*
G36*
X2547957Y3282500D02*
X2532043D01*
X2517342Y3276410D01*
X2506090Y3265158D01*
X2500000Y3250457D01*
Y3234543D01*
X2506090Y3219842D01*
X2517342Y3208590D01*
X2532043Y3202500D01*
X2547957D01*
X2562658Y3208590D01*
X2573910Y3219842D01*
X2580000Y3234543D01*
Y3250457D01*
X2573910Y3265158D01*
X2562658Y3276410D01*
X2547957Y3282500D01*
D02*
G37*
G36*
X2872404Y3173489D02*
Y3147721D01*
X2898173D01*
X2893954Y3157906D01*
X2882589Y3169271D01*
X2872404Y3173489D01*
D02*
G37*
G36*
X2847004D02*
X2836820Y3169271D01*
X2825455Y3157906D01*
X2821236Y3147721D01*
X2847004D01*
Y3173489D01*
D02*
G37*
G36*
X3229973Y3127500D02*
X3220027D01*
X3210839Y3123694D01*
X3205000Y3117855D01*
X3199161Y3123694D01*
X3189973Y3127500D01*
X3180027D01*
X3170839Y3123694D01*
X3163806Y3116661D01*
X3160000Y3107473D01*
Y3097527D01*
X3163806Y3088339D01*
X3169645Y3082500D01*
X3163806Y3076661D01*
X3160000Y3067473D01*
Y3057527D01*
X3163806Y3048339D01*
X3169645Y3042500D01*
X3163806Y3036661D01*
X3160000Y3027473D01*
Y3017527D01*
X3160217Y3017003D01*
X3150497Y3007283D01*
X3149973Y3007500D01*
X3140027D01*
X3139503Y3007283D01*
X3129783Y3017003D01*
X3130000Y3017527D01*
Y3027473D01*
X3126194Y3036661D01*
X3119161Y3043694D01*
X3109973Y3047500D01*
X3100027D01*
X3090839Y3043694D01*
X3085000Y3037855D01*
X3079161Y3043694D01*
X3069973Y3047500D01*
X3060027D01*
X3050839Y3043694D01*
X3045000Y3037855D01*
X3039161Y3043694D01*
X3029973Y3047500D01*
X3020027D01*
X3010839Y3043694D01*
X3003806Y3036661D01*
X3000000Y3027473D01*
Y3017527D01*
X3003806Y3008339D01*
X3010839Y3001306D01*
X3020027Y2997500D01*
X3029973D01*
X3039161Y3001306D01*
X3045000Y3007145D01*
X3050839Y3001306D01*
X3060027Y2997500D01*
X3069973D01*
X3079161Y3001306D01*
X3085000Y3007145D01*
X3090839Y3001306D01*
X3100027Y2997500D01*
X3109973D01*
X3110497Y2997717D01*
X3120217Y2987997D01*
X3120000Y2987473D01*
Y2977527D01*
X3123806Y2968339D01*
X3130839Y2961306D01*
X3140027Y2957500D01*
X3149973D01*
X3159161Y2961306D01*
X3166194Y2968339D01*
X3170000Y2977527D01*
Y2987473D01*
X3169783Y2987997D01*
X3179503Y2997717D01*
X3180027Y2997500D01*
X3189973D01*
X3199161Y3001306D01*
X3205000Y3007145D01*
X3210839Y3001306D01*
X3220027Y2997500D01*
X3229973D01*
X3239161Y3001306D01*
X3245000Y3007145D01*
X3250839Y3001306D01*
X3260027Y2997500D01*
X3269973D01*
X3279161Y3001306D01*
X3286194Y3008339D01*
X3290000Y3017527D01*
Y3027473D01*
X3289783Y3027997D01*
X3299503Y3037717D01*
X3300027Y3037500D01*
X3309973D01*
X3319161Y3041306D01*
X3326194Y3048339D01*
X3330000Y3057527D01*
Y3067473D01*
X3326194Y3076661D01*
X3319161Y3083694D01*
X3309973Y3087500D01*
X3300027D01*
X3290839Y3083694D01*
X3283806Y3076661D01*
X3280000Y3067473D01*
Y3057527D01*
X3280217Y3057003D01*
X3270497Y3047283D01*
X3269973Y3047500D01*
X3260027D01*
X3259503Y3047283D01*
X3249783Y3057003D01*
X3250000Y3057527D01*
Y3067473D01*
X3246194Y3076661D01*
X3240355Y3082500D01*
X3246194Y3088339D01*
X3250000Y3097527D01*
Y3107473D01*
X3246194Y3116661D01*
X3239161Y3123694D01*
X3229973Y3127500D01*
D02*
G37*
G36*
X3354208Y3221932D02*
X3342273D01*
X3331247Y3217365D01*
X3322808Y3208926D01*
X3318241Y3197899D01*
Y3185964D01*
X3322808Y3174938D01*
X3331247Y3166499D01*
X3339936Y3159429D01*
X3335369Y3148402D01*
Y3136467D01*
X3339936Y3125441D01*
X3348375Y3117002D01*
X3359401Y3112435D01*
X3371336D01*
X3382362Y3117002D01*
X3390801Y3125441D01*
X3395369Y3136467D01*
Y3148402D01*
X3390801Y3159429D01*
X3382362Y3167868D01*
X3373674Y3174938D01*
X3378241Y3185964D01*
Y3197899D01*
X3373673Y3208926D01*
X3365234Y3217365D01*
X3354208Y3221932D01*
D02*
G37*
G36*
X2898173Y3122321D02*
X2821236D01*
X2825455Y3112137D01*
X2836333Y3101259D01*
X2829567Y3094494D01*
X2825000Y3083468D01*
Y3071533D01*
X2829567Y3060506D01*
X2838006Y3052067D01*
X2849032Y3047500D01*
X2860967D01*
X2871993Y3052067D01*
X2880433Y3060506D01*
X2885000Y3071533D01*
Y3083468D01*
X2880433Y3094493D01*
X2881600Y3100362D01*
X2882589Y3100772D01*
X2893954Y3112137D01*
X2898173Y3122321D01*
D02*
G37*
G36*
X3347155Y3023754D02*
X3336970Y3019535D01*
X3325606Y3008171D01*
X3321387Y2997986D01*
X3347155D01*
Y3023754D01*
D02*
G37*
G36*
Y2972586D02*
X3321387D01*
X3325606Y2962401D01*
X3336970Y2951037D01*
X3347155Y2946818D01*
Y2972586D01*
D02*
G37*
G36*
X2467700Y2953468D02*
Y2927700D01*
X2493468D01*
X2489249Y2937885D01*
X2477885Y2949249D01*
X2467700Y2953468D01*
D02*
G37*
G36*
X3230967Y2972500D02*
X3219032D01*
X3208006Y2967933D01*
X3199567Y2959494D01*
X3195000Y2948468D01*
Y2936533D01*
X3199567Y2925506D01*
X3208006Y2917067D01*
X3219032Y2912500D01*
X3230967D01*
X3241994Y2917067D01*
X3250433Y2925506D01*
X3255000Y2936533D01*
Y2948468D01*
X3250433Y2959494D01*
X3241994Y2967933D01*
X3230967Y2972500D01*
D02*
G37*
G36*
X2845200Y2916792D02*
Y2880200D01*
X2881792D01*
X2875227Y2896049D01*
X2861049Y2910227D01*
X2845200Y2916792D01*
D02*
G37*
G36*
X2819800D02*
X2803951Y2910227D01*
X2789773Y2896049D01*
X2783208Y2880200D01*
X2819800D01*
Y2916792D01*
D02*
G37*
G36*
X2493468Y2902300D02*
X2467700D01*
Y2876532D01*
X2477885Y2880751D01*
X2489249Y2892115D01*
X2493468Y2902300D01*
D02*
G37*
G36*
X3354468Y2917500D02*
X3342533D01*
X3331506Y2912933D01*
X3323067Y2904494D01*
X3318500Y2893467D01*
Y2881532D01*
X3323067Y2870506D01*
X3331506Y2862067D01*
X3342533Y2857500D01*
X3354468D01*
X3365494Y2862067D01*
X3373933Y2870506D01*
X3378500Y2881532D01*
Y2893467D01*
X3373933Y2904494D01*
X3365494Y2912933D01*
X3354468Y2917500D01*
D02*
G37*
G36*
X3267875Y2901523D02*
X3255940D01*
X3244914Y2896956D01*
X3236475Y2888516D01*
X3231908Y2877490D01*
Y2865555D01*
X3236475Y2854529D01*
X3244914Y2846090D01*
X3255940Y2841523D01*
X3267875D01*
X3278901Y2846090D01*
X3287341Y2854529D01*
X3291908Y2865555D01*
Y2877490D01*
X3287341Y2888516D01*
X3278901Y2896956D01*
X3267875Y2901523D01*
D02*
G37*
G36*
X2881792Y2854800D02*
X2845200D01*
Y2818208D01*
X2861049Y2824773D01*
X2875227Y2838951D01*
X2881792Y2854800D01*
D02*
G37*
G36*
X2819800D02*
X2783208D01*
X2789773Y2838951D01*
X2803951Y2824773D01*
X2819800Y2818208D01*
Y2854800D01*
D02*
G37*
G36*
X2973468Y2870000D02*
X2961533D01*
X2950506Y2865433D01*
X2942067Y2856994D01*
X2937500Y2845967D01*
Y2834032D01*
X2942067Y2823006D01*
X2950506Y2814567D01*
X2961533Y2810000D01*
X2973468D01*
X2984494Y2814567D01*
X2992933Y2823006D01*
X2997500Y2834032D01*
Y2845967D01*
X2992933Y2856994D01*
X2984494Y2865433D01*
X2973468Y2870000D01*
D02*
G37*
G36*
X3095928Y2857446D02*
X3083993D01*
X3072966Y2852879D01*
X3064527Y2844440D01*
X3059960Y2833414D01*
Y2821479D01*
X3064527Y2810453D01*
X3072966Y2802013D01*
X3083993Y2797446D01*
X3095928D01*
X3106954Y2802013D01*
X3115393Y2810453D01*
X3119960Y2821479D01*
Y2833414D01*
X3115393Y2844440D01*
X3106954Y2852879D01*
X3095928Y2857446D01*
D02*
G37*
G36*
X2475967Y2852500D02*
X2464032D01*
X2453006Y2847933D01*
X2444567Y2839494D01*
X2440000Y2828468D01*
Y2816533D01*
X2444567Y2805506D01*
X2453006Y2797067D01*
X2464032Y2792500D01*
X2475967D01*
X2486994Y2797067D01*
X2495433Y2805506D01*
X2500000Y2816533D01*
Y2828468D01*
X2495433Y2839494D01*
X2486994Y2847933D01*
X2475967Y2852500D01*
D02*
G37*
G36*
X3032300Y2791374D02*
X3018985Y2787807D01*
X3003616Y2778933D01*
X2991067Y2766384D01*
X2982193Y2751015D01*
X2981201Y2747312D01*
X2967818Y2746434D01*
X2963322Y2757288D01*
X2947288Y2773322D01*
X2926338Y2782000D01*
X2903662D01*
X2882712Y2773322D01*
X2866678Y2757288D01*
X2858000Y2736338D01*
Y2713662D01*
X2866267Y2693705D01*
X2863867Y2688006D01*
X2859430Y2682000D01*
X2840570D01*
X2836133Y2688007D01*
X2833733Y2693705D01*
X2842000Y2713662D01*
Y2736338D01*
X2833322Y2757288D01*
X2817288Y2773322D01*
X2796338Y2782000D01*
X2773662D01*
X2752712Y2773322D01*
X2736678Y2757288D01*
X2728000Y2736338D01*
Y2713662D01*
X2736678Y2692712D01*
X2752712Y2676678D01*
X2773662Y2668000D01*
X2794430D01*
X2798867Y2661993D01*
X2801267Y2656295D01*
X2793000Y2636338D01*
Y2613662D01*
X2801678Y2592712D01*
X2817712Y2576678D01*
X2838662Y2568000D01*
X2861338D01*
X2882288Y2576678D01*
X2898322Y2592712D01*
X2907000Y2613662D01*
Y2636338D01*
X2898733Y2656295D01*
X2901133Y2661993D01*
X2905570Y2668000D01*
X2924430D01*
X2928867Y2661993D01*
X2931267Y2656295D01*
X2923000Y2636338D01*
Y2613662D01*
X2931678Y2592712D01*
X2947712Y2576678D01*
X2968662Y2568000D01*
X2991338D01*
X3012288Y2576678D01*
X3028322Y2592712D01*
X3037000Y2613662D01*
Y2636338D01*
X3033252Y2645387D01*
X3033684Y2647222D01*
X3041939Y2657600D01*
X3053873D01*
X3071015Y2662193D01*
X3086384Y2671067D01*
X3098933Y2683615D01*
X3107807Y2698984D01*
X3111375Y2712300D01*
X3045000D01*
Y2725000D01*
X3032300D01*
Y2791374D01*
D02*
G37*
G36*
X3057700D02*
Y2737700D01*
X3111375D01*
X3107807Y2751015D01*
X3098933Y2766384D01*
X3086384Y2778933D01*
X3071015Y2787807D01*
X3057700Y2791374D01*
D02*
G37*
G36*
X3272500Y2814126D02*
X3250065Y2809663D01*
X3231045Y2796955D01*
X3218336Y2777935D01*
X3213873Y2755500D01*
Y2650500D01*
X3218336Y2628065D01*
X3231045Y2609045D01*
X3250065Y2596336D01*
X3272500Y2591874D01*
X3294935Y2596336D01*
X3313955Y2609045D01*
X3326664Y2628065D01*
X3331126Y2650500D01*
Y2734234D01*
X3343826Y2736760D01*
X3345750Y2732115D01*
X3357115Y2720751D01*
X3367300Y2716532D01*
Y2755000D01*
Y2793468D01*
X3357115Y2789249D01*
X3345750Y2777885D01*
X3341611Y2767890D01*
X3328403Y2769191D01*
X3326664Y2777935D01*
X3313955Y2796955D01*
X3294935Y2809663D01*
X3272500Y2814126D01*
D02*
G37*
G36*
X2557500D02*
X2535065Y2809663D01*
X2516045Y2796955D01*
X2503336Y2777935D01*
X2498874Y2755500D01*
Y2650500D01*
X2503336Y2628065D01*
X2516045Y2609045D01*
X2535065Y2596336D01*
X2557500Y2591874D01*
X2579935Y2596336D01*
X2598955Y2609045D01*
X2611664Y2628065D01*
X2616127Y2650500D01*
Y2755500D01*
X2611664Y2777935D01*
X2598955Y2796955D01*
X2579935Y2809663D01*
X2557500Y2814126D01*
D02*
G37*
%LPD*%
D30*
X3045000Y2725000D02*
D03*
X2785000D02*
D03*
X2980000Y2625000D02*
D03*
X2915000Y2725000D02*
D03*
X2850000Y2625000D02*
D03*
D31*
X3272500Y2703000D02*
D03*
X2557500D02*
D03*
D32*
X3365369Y3142435D02*
D03*
X3348241Y3191932D02*
D03*
X3359855Y2985286D02*
D03*
X2837500Y3242500D02*
D03*
X3198424Y3518698D02*
D03*
X3330000Y3510000D02*
D03*
X2455000Y2915000D02*
D03*
X2470000Y2822500D02*
D03*
X3380000Y2755000D02*
D03*
X2940000Y3332500D02*
D03*
X3319314Y3299285D02*
D03*
X3290267Y3389954D02*
D03*
X3261908Y2871523D02*
D03*
X2768910Y3698548D02*
D03*
X3350000Y3707500D02*
D03*
X3348500Y2887500D02*
D03*
X3089960Y2827446D02*
D03*
X2967500Y2840000D02*
D03*
X3361587Y3626587D02*
D03*
X3362835Y3575316D02*
D03*
X3225000Y2942500D02*
D03*
X2830775Y3525289D02*
D03*
X2958057Y3452277D02*
D03*
X3073618Y3410042D02*
D03*
X2540000Y3627500D02*
D03*
X3032500Y3562500D02*
D03*
X2639383Y3634152D02*
D03*
X2913500Y3602500D02*
D03*
X2855000Y3077500D02*
D03*
X2859704Y3135021D02*
D03*
X2538750Y3499000D02*
D03*
X2739364Y3624204D02*
D03*
X2632500Y3407500D02*
D03*
X2585150Y3653918D02*
D03*
D33*
X3065000Y3102500D02*
D03*
X3265000Y3022500D02*
D03*
X3105000D02*
D03*
X3065000Y3182500D02*
D03*
X3105000Y3222500D02*
D03*
X3065000Y3022500D02*
D03*
X3025000D02*
D03*
X3105000Y3102500D02*
D03*
X3065000Y3142500D02*
D03*
X3145000Y2982500D02*
D03*
X3185000Y3022500D02*
D03*
Y3062500D02*
D03*
Y3102500D02*
D03*
X3225000D02*
D03*
X3305000Y3062500D02*
D03*
X3225000D02*
D03*
Y3022500D02*
D03*
D34*
X2540000Y3242500D02*
D03*
X2832500Y2867500D02*
D03*
%TF.MD5,d6e036a44a46796c8e093aac11bb245e*%
M02*
