%TF.GenerationSoftware,Altium Limited,Altium Designer,24.10.1 (45)*%
G04 Layer_Physical_Order=4*
G04 Layer_Color=16737945*
%FSLAX45Y45*%
%MOMM*%
%TF.SameCoordinates,0DFC8F11-482D-4AB8-A3BE-AF813C361F11*%
%TF.FilePolarity,Positive*%
%TF.FileFunction,Copper,L4,Inr,Signal*%
%TF.Part,Single*%
G01*
G75*
%TA.AperFunction,ComponentPad*%
%ADD30C,0.84000*%
%ADD31O,0.85000X1.90000*%
%TA.AperFunction,ViaPad*%
%ADD32C,0.30000*%
%ADD33C,0.20000*%
%ADD34C,0.50000*%
G36*
X2438299Y3787497D02*
X2438299Y3787499D01*
X3390000Y3787499D01*
X3394475Y3787500D01*
X3402745Y3784074D01*
X3409074Y3777745D01*
X3409634Y3776394D01*
X3412499Y3765002D01*
Y3765000D01*
X3412499Y3765000D01*
X3412500Y3764999D01*
X3412820Y2782567D01*
X3400122Y2777305D01*
X3396993Y2780433D01*
X3385967Y2785000D01*
X3374032D01*
X3363006Y2780433D01*
X3354567Y2771994D01*
X3350000Y2760968D01*
Y2749033D01*
X3354567Y2738006D01*
X3363006Y2729567D01*
X3374032Y2725000D01*
X3385967D01*
X3396993Y2729567D01*
X3400136Y2732710D01*
X3412838Y2727451D01*
X3412900Y2537900D01*
Y2532847D01*
X3409033Y2523512D01*
X3401888Y2516367D01*
X3392552Y2512500D01*
X2433247D01*
X2423912Y2516367D01*
X2416767Y2523512D01*
X2412900Y2532847D01*
Y2899436D01*
X2421427Y2908605D01*
X2421428Y2908605D01*
Y2908605D01*
X2425000Y2909032D01*
X2429567Y2898006D01*
X2438006Y2889567D01*
X2449032Y2885000D01*
X2460967D01*
X2471994Y2889567D01*
X2480433Y2898006D01*
X2485000Y2909033D01*
Y2920967D01*
X2480433Y2931994D01*
X2471994Y2940433D01*
X2460967Y2945000D01*
X2449032D01*
X2438006Y2940433D01*
X2429567Y2931994D01*
X2425000Y2920968D01*
X2421428Y2921395D01*
Y2921395D01*
X2421427Y2921396D01*
X2412900Y2930564D01*
X2412900Y3765000D01*
X2413188Y3769763D01*
X2417368Y3778344D01*
X2424513Y3784673D01*
X2433535Y3787786D01*
X2438299Y3787497D01*
D02*
G37*
%LPC*%
G36*
X3362700Y3745968D02*
Y3720200D01*
X3388468D01*
X3384249Y3730385D01*
X3372885Y3741749D01*
X3362700Y3745968D01*
D02*
G37*
G36*
X3337300D02*
X3327115Y3741749D01*
X3315751Y3730385D01*
X3311532Y3720200D01*
X3337300D01*
Y3745968D01*
D02*
G37*
G36*
X2781610Y3737016D02*
Y3711248D01*
X2807378D01*
X2803159Y3721432D01*
X2791794Y3732797D01*
X2781610Y3737016D01*
D02*
G37*
G36*
X2756210D02*
X2746025Y3732797D01*
X2734660Y3721432D01*
X2730442Y3711248D01*
X2756210D01*
Y3737016D01*
D02*
G37*
G36*
X2591118Y3683918D02*
X2579183D01*
X2568157Y3679351D01*
X2559718Y3670911D01*
X2555150Y3659885D01*
X2549432Y3656065D01*
X2545967Y3657500D01*
X2534033D01*
X2523006Y3652933D01*
X2514567Y3644494D01*
X2510000Y3633467D01*
Y3621533D01*
X2514567Y3610506D01*
X2523006Y3602067D01*
X2534033Y3597500D01*
X2545967D01*
X2556994Y3602067D01*
X2565433Y3610506D01*
X2570000Y3621532D01*
X2575718Y3625353D01*
X2579183Y3623918D01*
X2591118D01*
X2597377Y3626510D01*
X2603625Y3627381D01*
X2612435Y3620816D01*
X2613951Y3617158D01*
X2622390Y3608719D01*
X2633416Y3604152D01*
X2645351D01*
X2656377Y3608719D01*
X2664816Y3617158D01*
X2669383Y3628184D01*
Y3640119D01*
X2664816Y3651145D01*
X2656377Y3659585D01*
X2645351Y3664152D01*
X2633416D01*
X2627157Y3661559D01*
X2620909Y3660688D01*
X2612098Y3667254D01*
X2610583Y3670911D01*
X2602144Y3679351D01*
X2591118Y3683918D01*
D02*
G37*
G36*
X2926200Y3640968D02*
Y3615200D01*
X2951968D01*
X2947750Y3625385D01*
X2936385Y3636749D01*
X2926200Y3640968D01*
D02*
G37*
G36*
X2900800D02*
X2890616Y3636749D01*
X2879251Y3625385D01*
X2875032Y3615200D01*
X2900800D01*
Y3640968D01*
D02*
G37*
G36*
X2807378Y3685848D02*
X2730442D01*
X2734660Y3675663D01*
X2743419Y3666904D01*
X2739906Y3654794D01*
X2739526Y3654204D01*
X2733396D01*
X2722370Y3649637D01*
X2713931Y3641197D01*
X2709364Y3630171D01*
Y3618236D01*
X2713931Y3607210D01*
X2722370Y3598771D01*
X2733396Y3594204D01*
X2745331D01*
X2756357Y3598771D01*
X2764797Y3607210D01*
X2769364Y3618236D01*
Y3630171D01*
X2764797Y3641197D01*
X2760315Y3645679D01*
X2765807Y3658148D01*
X2776946D01*
X2791794Y3664298D01*
X2803159Y3675663D01*
X2807378Y3685848D01*
D02*
G37*
G36*
X2951968Y3589800D02*
X2926200D01*
Y3564032D01*
X2936385Y3568251D01*
X2947750Y3579615D01*
X2951968Y3589800D01*
D02*
G37*
G36*
X2900800D02*
X2875032D01*
X2879251Y3579615D01*
X2890616Y3568251D01*
X2900800Y3564032D01*
Y3589800D01*
D02*
G37*
G36*
X3388468Y3694800D02*
X3311532D01*
X3315751Y3684615D01*
X3327115Y3673251D01*
X3341964Y3667100D01*
X3347814D01*
X3350340Y3654400D01*
X3344593Y3652020D01*
X3336154Y3643580D01*
X3331587Y3632554D01*
Y3620619D01*
X3336154Y3609593D01*
X3344593Y3601154D01*
X3338265Y3593205D01*
X3337411Y3592319D01*
X3337402Y3592309D01*
X3332835Y3581283D01*
Y3569348D01*
X3337402Y3558322D01*
X3345841Y3549883D01*
X3356867Y3545316D01*
X3368802D01*
X3379828Y3549883D01*
X3388267Y3558322D01*
X3392834Y3569348D01*
Y3581283D01*
X3388267Y3592309D01*
X3379828Y3600748D01*
X3386156Y3608697D01*
X3387010Y3609584D01*
X3387019Y3609593D01*
X3391587Y3620619D01*
Y3632554D01*
X3387019Y3643580D01*
X3378580Y3652020D01*
X3367554Y3656587D01*
X3365841D01*
X3363315Y3669287D01*
X3372885Y3673251D01*
X3384249Y3684615D01*
X3388468Y3694800D01*
D02*
G37*
G36*
X3038467Y3592500D02*
X3026532D01*
X3015506Y3587933D01*
X3007067Y3579494D01*
X3002500Y3568468D01*
Y3556533D01*
X3007067Y3545506D01*
X3015506Y3537067D01*
X3026532Y3532500D01*
X3038467D01*
X3049494Y3537067D01*
X3057933Y3545506D01*
X3062500Y3556533D01*
Y3568468D01*
X3057933Y3579494D01*
X3049494Y3587933D01*
X3038467Y3592500D01*
D02*
G37*
G36*
X2551450Y3537468D02*
Y3511700D01*
X2577218D01*
X2572999Y3521885D01*
X2561635Y3533249D01*
X2551450Y3537468D01*
D02*
G37*
G36*
X2526050D02*
X2515865Y3533249D01*
X2504501Y3521885D01*
X2500282Y3511700D01*
X2526050D01*
Y3537468D01*
D02*
G37*
G36*
X2836742Y3555289D02*
X2824807D01*
X2813781Y3550722D01*
X2805342Y3542283D01*
X2800775Y3531257D01*
Y3519322D01*
X2805342Y3508295D01*
X2813781Y3499856D01*
X2824807Y3495289D01*
X2836742D01*
X2847768Y3499856D01*
X2856207Y3508295D01*
X2860775Y3519322D01*
Y3531257D01*
X2856207Y3542283D01*
X2847768Y3550722D01*
X2836742Y3555289D01*
D02*
G37*
G36*
X3204392Y3548698D02*
X3192457D01*
X3181431Y3544131D01*
X3172991Y3535691D01*
X3168424Y3524665D01*
Y3512730D01*
X3172991Y3501704D01*
X3181431Y3493265D01*
X3192457Y3488698D01*
X3204392D01*
X3215418Y3493265D01*
X3223857Y3501704D01*
X3228424Y3512730D01*
Y3524665D01*
X3223857Y3535691D01*
X3215418Y3544131D01*
X3204392Y3548698D01*
D02*
G37*
G36*
X3335967Y3540000D02*
X3324032D01*
X3313006Y3535433D01*
X3304567Y3526994D01*
X3300000Y3515968D01*
Y3504033D01*
X3304567Y3493006D01*
X3313006Y3484567D01*
X3324032Y3480000D01*
X3335967D01*
X3346994Y3484567D01*
X3355433Y3493006D01*
X3360000Y3504033D01*
Y3515968D01*
X3355433Y3526994D01*
X3346994Y3535433D01*
X3335967Y3540000D01*
D02*
G37*
G36*
X2577218Y3486300D02*
X2551450D01*
Y3460532D01*
X2561635Y3464751D01*
X2572999Y3476115D01*
X2577218Y3486300D01*
D02*
G37*
G36*
X2526050D02*
X2500282D01*
X2504501Y3476115D01*
X2515865Y3464751D01*
X2526050Y3460532D01*
Y3486300D01*
D02*
G37*
G36*
X3086318Y3448510D02*
Y3422742D01*
X3112086D01*
X3107868Y3432927D01*
X3096503Y3444292D01*
X3086318Y3448510D01*
D02*
G37*
G36*
X3060918D02*
X3050734Y3444292D01*
X3039369Y3432927D01*
X3035150Y3422742D01*
X3060918D01*
Y3448510D01*
D02*
G37*
G36*
X2964024Y3482277D02*
X2952089D01*
X2941063Y3477710D01*
X2932624Y3469270D01*
X2928057Y3458244D01*
Y3446309D01*
X2932624Y3435283D01*
X2941063Y3426844D01*
X2952089Y3422277D01*
X2964024D01*
X2975050Y3426844D01*
X2983490Y3435283D01*
X2988057Y3446309D01*
Y3458244D01*
X2983490Y3469270D01*
X2975050Y3477710D01*
X2964024Y3482277D01*
D02*
G37*
G36*
X2638467Y3437500D02*
X2626532D01*
X2615506Y3432933D01*
X2607067Y3424494D01*
X2602500Y3413467D01*
Y3401532D01*
X2607067Y3390506D01*
X2615506Y3382067D01*
X2626532Y3377500D01*
X2638467D01*
X2649494Y3382067D01*
X2657933Y3390506D01*
X2662500Y3401532D01*
Y3413467D01*
X2657933Y3424494D01*
X2649494Y3432933D01*
X2638467Y3437500D01*
D02*
G37*
G36*
X3112086Y3397342D02*
X3086318D01*
Y3371574D01*
X3096503Y3375793D01*
X3107868Y3387158D01*
X3112086Y3397342D01*
D02*
G37*
G36*
X3060918D02*
X3035150D01*
X3039369Y3387158D01*
X3050734Y3375793D01*
X3060918Y3371574D01*
Y3397342D01*
D02*
G37*
G36*
X3296235Y3419954D02*
X3284300D01*
X3273274Y3415387D01*
X3264834Y3406948D01*
X3260267Y3395922D01*
Y3383987D01*
X3264834Y3372961D01*
X3273274Y3364522D01*
X3284300Y3359954D01*
X3296235D01*
X3307261Y3364522D01*
X3315700Y3372961D01*
X3320267Y3383987D01*
Y3395922D01*
X3315700Y3406948D01*
X3307261Y3415387D01*
X3296235Y3419954D01*
D02*
G37*
G36*
X3332014Y3337753D02*
Y3311985D01*
X3357782D01*
X3353563Y3322170D01*
X3342199Y3333535D01*
X3332014Y3337753D01*
D02*
G37*
G36*
X3306614D02*
X3296429Y3333535D01*
X3285065Y3322170D01*
X3280846Y3311985D01*
X3306614D01*
Y3337753D01*
D02*
G37*
G36*
X2945967Y3362500D02*
X2934032D01*
X2923006Y3357933D01*
X2914567Y3349494D01*
X2910000Y3338468D01*
Y3326533D01*
X2914567Y3315506D01*
X2923006Y3307067D01*
X2934032Y3302500D01*
X2945967D01*
X2956994Y3307067D01*
X2965433Y3315506D01*
X2970000Y3326533D01*
Y3338468D01*
X2965433Y3349494D01*
X2956994Y3357933D01*
X2945967Y3362500D01*
D02*
G37*
G36*
X3357782Y3286585D02*
X3332014D01*
Y3260817D01*
X3342199Y3265036D01*
X3353563Y3276401D01*
X3357782Y3286585D01*
D02*
G37*
G36*
X3306614D02*
X3280846D01*
X3285065Y3276401D01*
X3296429Y3265036D01*
X3306614Y3260817D01*
Y3286585D01*
D02*
G37*
G36*
X2850200Y3280968D02*
Y3255200D01*
X2875968D01*
X2871749Y3265385D01*
X2860385Y3276749D01*
X2850200Y3280968D01*
D02*
G37*
G36*
X2824800D02*
X2814615Y3276749D01*
X2803251Y3265385D01*
X2799032Y3255200D01*
X2824800D01*
Y3280968D01*
D02*
G37*
G36*
X2552700Y3291792D02*
Y3255200D01*
X2589292D01*
X2582727Y3271049D01*
X2568549Y3285227D01*
X2552700Y3291792D01*
D02*
G37*
G36*
X2527300D02*
X2511451Y3285227D01*
X2497273Y3271049D01*
X2490708Y3255200D01*
X2527300D01*
Y3291792D01*
D02*
G37*
G36*
X2875968Y3229800D02*
X2850200D01*
Y3204032D01*
X2860385Y3208251D01*
X2871749Y3219615D01*
X2875968Y3229800D01*
D02*
G37*
G36*
X2824800D02*
X2799032D01*
X2803251Y3219615D01*
X2814615Y3208251D01*
X2824800Y3204032D01*
Y3229800D01*
D02*
G37*
G36*
X3109973Y3247500D02*
X3100027D01*
X3090839Y3243694D01*
X3083806Y3236661D01*
X3080000Y3227473D01*
X3077700Y3224707D01*
Y3195200D01*
X3107206D01*
X3109973Y3197500D01*
X3119161Y3201306D01*
X3126194Y3208339D01*
X3130000Y3217527D01*
Y3227473D01*
X3126194Y3236661D01*
X3119161Y3243694D01*
X3109973Y3247500D01*
D02*
G37*
G36*
X3052300Y3215556D02*
X3044947Y3212511D01*
X3034989Y3202553D01*
X3031944Y3195200D01*
X3052300D01*
Y3215556D01*
D02*
G37*
G36*
X2589292Y3229800D02*
X2552700D01*
Y3193208D01*
X2568549Y3199773D01*
X2582727Y3213951D01*
X2589292Y3229800D01*
D02*
G37*
G36*
X2527300D02*
X2490708D01*
X2497273Y3213951D01*
X2511451Y3199773D01*
X2527300Y3193208D01*
Y3229800D01*
D02*
G37*
G36*
X3229973Y3127500D02*
X3220027D01*
X3210839Y3123694D01*
X3205000Y3117855D01*
X3199161Y3123694D01*
X3189973Y3127500D01*
X3180027D01*
X3170839Y3123694D01*
X3163806Y3116661D01*
X3160000Y3107473D01*
Y3097527D01*
X3163806Y3088339D01*
X3169645Y3082500D01*
X3163806Y3076661D01*
X3160000Y3067473D01*
Y3057527D01*
X3163806Y3048339D01*
X3169645Y3042500D01*
X3163806Y3036661D01*
X3160000Y3027473D01*
Y3017527D01*
X3160217Y3017003D01*
X3150497Y3007283D01*
X3149973Y3007500D01*
X3140027D01*
X3139503Y3007283D01*
X3129783Y3017003D01*
X3130000Y3017527D01*
Y3027473D01*
X3126194Y3036661D01*
X3119161Y3043694D01*
X3109973Y3047500D01*
X3100027D01*
X3092982Y3044581D01*
X3085053Y3052511D01*
X3077700Y3055556D01*
Y3022500D01*
Y2989444D01*
X3085053Y2992489D01*
X3092982Y3000418D01*
X3100027Y2997500D01*
X3109973D01*
X3110497Y2997717D01*
X3120217Y2987997D01*
X3120000Y2987473D01*
Y2977527D01*
X3123806Y2968339D01*
X3130839Y2961306D01*
X3140027Y2957500D01*
X3149973D01*
X3159161Y2961306D01*
X3166194Y2968339D01*
X3170000Y2977527D01*
Y2987473D01*
X3169783Y2987997D01*
X3179503Y2997717D01*
X3180027Y2997500D01*
X3189973D01*
X3199161Y3001306D01*
X3205000Y3007145D01*
X3210839Y3001306D01*
X3220027Y2997500D01*
X3229973D01*
X3239161Y3001306D01*
X3245000Y3007145D01*
X3250839Y3001306D01*
X3260027Y2997500D01*
X3269973D01*
X3279161Y3001306D01*
X3286194Y3008339D01*
X3290000Y3017527D01*
Y3027473D01*
X3289783Y3027997D01*
X3299503Y3037717D01*
X3300027Y3037500D01*
X3309973D01*
X3319161Y3041306D01*
X3326194Y3048339D01*
X3330000Y3057527D01*
Y3067473D01*
X3326194Y3076661D01*
X3319161Y3083694D01*
X3309973Y3087500D01*
X3300027D01*
X3290839Y3083694D01*
X3283806Y3076661D01*
X3280000Y3067473D01*
Y3057527D01*
X3280217Y3057003D01*
X3270497Y3047283D01*
X3269973Y3047500D01*
X3260027D01*
X3259503Y3047283D01*
X3249783Y3057003D01*
X3250000Y3057527D01*
Y3067473D01*
X3246194Y3076661D01*
X3240355Y3082500D01*
X3246194Y3088339D01*
X3250000Y3097527D01*
Y3107473D01*
X3246194Y3116661D01*
X3239161Y3123694D01*
X3229973Y3127500D01*
D02*
G37*
G36*
X3354208Y3221932D02*
X3342273D01*
X3331247Y3217365D01*
X3322808Y3208926D01*
X3318241Y3197899D01*
Y3185964D01*
X3322808Y3174938D01*
X3331247Y3166499D01*
X3339936Y3159429D01*
X3335369Y3148402D01*
Y3136467D01*
X3339936Y3125441D01*
X3348375Y3117002D01*
X3359401Y3112435D01*
X3371336D01*
X3382362Y3117002D01*
X3390801Y3125441D01*
X3395369Y3136467D01*
Y3148402D01*
X3390801Y3159429D01*
X3382362Y3167868D01*
X3373674Y3174938D01*
X3378241Y3185964D01*
Y3197899D01*
X3373673Y3208926D01*
X3365234Y3217365D01*
X3354208Y3221932D01*
D02*
G37*
G36*
X3098056Y3169800D02*
X3031944D01*
X3034989Y3162448D01*
X3042918Y3154518D01*
X3040000Y3147473D01*
Y3137527D01*
X3043806Y3128339D01*
X3049645Y3122500D01*
X3043806Y3116661D01*
X3040000Y3107473D01*
Y3097527D01*
X3043806Y3088339D01*
X3050839Y3081306D01*
X3060027Y3077500D01*
X3069973D01*
X3079161Y3081306D01*
X3085000Y3087145D01*
X3090839Y3081306D01*
X3100027Y3077500D01*
X3109973D01*
X3119161Y3081306D01*
X3126194Y3088339D01*
X3130000Y3097527D01*
Y3107473D01*
X3126194Y3116661D01*
X3119161Y3123694D01*
X3109973Y3127500D01*
X3100027D01*
X3099503Y3127283D01*
X3089783Y3137003D01*
X3090000Y3137527D01*
Y3147473D01*
X3087081Y3154518D01*
X3095011Y3162448D01*
X3098056Y3169800D01*
D02*
G37*
G36*
X2865672Y3165021D02*
X2853737D01*
X2842711Y3160454D01*
X2834272Y3152015D01*
X2829705Y3140989D01*
Y3129054D01*
X2834272Y3118028D01*
X2836319Y3115981D01*
X2837929Y3103532D01*
X2835390Y3100316D01*
X2829567Y3094494D01*
X2825000Y3083468D01*
Y3071533D01*
X2829567Y3060506D01*
X2838006Y3052067D01*
X2849032Y3047500D01*
X2860967D01*
X2871993Y3052067D01*
X2880433Y3060506D01*
X2885000Y3071533D01*
Y3083468D01*
X2880433Y3094494D01*
X2878385Y3096541D01*
X2876776Y3108989D01*
X2879315Y3112205D01*
X2885137Y3118028D01*
X2889704Y3129054D01*
Y3140989D01*
X2885137Y3152015D01*
X2876698Y3160454D01*
X2865672Y3165021D01*
D02*
G37*
G36*
X3052300Y3055556D02*
X3044947Y3052511D01*
X3037018Y3044581D01*
X3029973Y3047500D01*
X3020027D01*
X3010839Y3043694D01*
X3003806Y3036661D01*
X3000000Y3027473D01*
Y3017527D01*
X3003806Y3008339D01*
X3010839Y3001306D01*
X3020027Y2997500D01*
X3029973D01*
X3037018Y3000418D01*
X3044947Y2992489D01*
X3052300Y2989444D01*
Y3022500D01*
Y3055556D01*
D02*
G37*
G36*
X3365823Y3015286D02*
X3353888D01*
X3342861Y3010719D01*
X3334422Y3002279D01*
X3329855Y2991253D01*
Y2979318D01*
X3334422Y2968292D01*
X3342861Y2959853D01*
X3353888Y2955286D01*
X3365823D01*
X3376849Y2959853D01*
X3385288Y2968292D01*
X3389855Y2979318D01*
Y2991253D01*
X3385288Y3002279D01*
X3376849Y3010719D01*
X3365823Y3015286D01*
D02*
G37*
G36*
X3230967Y2972500D02*
X3219032D01*
X3208006Y2967933D01*
X3199567Y2959494D01*
X3195000Y2948468D01*
Y2936533D01*
X3199567Y2925506D01*
X3208006Y2917067D01*
X3219032Y2912500D01*
X3230967D01*
X3241994Y2917067D01*
X3250433Y2925506D01*
X3255000Y2936533D01*
Y2948468D01*
X3250433Y2959494D01*
X3241994Y2967933D01*
X3230967Y2972500D01*
D02*
G37*
G36*
X3361200Y2925968D02*
Y2900200D01*
X3386968D01*
X3382749Y2910385D01*
X3371385Y2921749D01*
X3361200Y2925968D01*
D02*
G37*
G36*
X3335800D02*
X3325615Y2921749D01*
X3314251Y2910385D01*
X3310032Y2900200D01*
X3335800D01*
Y2925968D01*
D02*
G37*
G36*
X2980200Y2878468D02*
Y2852700D01*
X3005968D01*
X3001749Y2862885D01*
X2990385Y2874249D01*
X2980200Y2878468D01*
D02*
G37*
G36*
X2954800D02*
X2944615Y2874249D01*
X2933251Y2862885D01*
X2929032Y2852700D01*
X2954800D01*
Y2878468D01*
D02*
G37*
G36*
X3386968Y2874800D02*
X3361200D01*
Y2849032D01*
X3371385Y2853251D01*
X3382749Y2864615D01*
X3386968Y2874800D01*
D02*
G37*
G36*
X3335800D02*
X3310032D01*
X3314251Y2864615D01*
X3325615Y2853251D01*
X3335800Y2849032D01*
Y2874800D01*
D02*
G37*
G36*
X3267875Y2901523D02*
X3255940D01*
X3244914Y2896956D01*
X3236475Y2888516D01*
X3231908Y2877490D01*
Y2865555D01*
X3236475Y2854529D01*
X3244914Y2846090D01*
X3255940Y2841523D01*
X3267875D01*
X3278901Y2846090D01*
X3287341Y2854529D01*
X3291908Y2865555D01*
Y2877490D01*
X3287341Y2888516D01*
X3278901Y2896956D01*
X3267875Y2901523D01*
D02*
G37*
G36*
X3102660Y2865914D02*
Y2840146D01*
X3128428D01*
X3124209Y2850331D01*
X3112845Y2861696D01*
X3102660Y2865914D01*
D02*
G37*
G36*
X3077260D02*
X3067075Y2861696D01*
X3055711Y2850331D01*
X3051492Y2840146D01*
X3077260D01*
Y2865914D01*
D02*
G37*
G36*
X2840457Y2907500D02*
X2824543D01*
X2809842Y2901410D01*
X2798590Y2890158D01*
X2792500Y2875457D01*
Y2859543D01*
X2798590Y2844842D01*
X2809842Y2833590D01*
X2824543Y2827500D01*
X2840457D01*
X2855158Y2833590D01*
X2866410Y2844842D01*
X2872500Y2859543D01*
Y2875457D01*
X2866410Y2890158D01*
X2855158Y2901410D01*
X2840457Y2907500D01*
D02*
G37*
G36*
X3005968Y2827300D02*
X2980200D01*
Y2801532D01*
X2990385Y2805751D01*
X3001749Y2817115D01*
X3005968Y2827300D01*
D02*
G37*
G36*
X2954800D02*
X2929032D01*
X2933251Y2817115D01*
X2944615Y2805751D01*
X2954800Y2801532D01*
Y2827300D01*
D02*
G37*
G36*
X2475967Y2852500D02*
X2464032D01*
X2453006Y2847933D01*
X2444567Y2839494D01*
X2440000Y2828468D01*
Y2816533D01*
X2444567Y2805506D01*
X2453006Y2797067D01*
X2464032Y2792500D01*
X2475967D01*
X2486994Y2797067D01*
X2495433Y2805506D01*
X2500000Y2816533D01*
Y2828468D01*
X2495433Y2839494D01*
X2486994Y2847933D01*
X2475967Y2852500D01*
D02*
G37*
G36*
X3128428Y2814746D02*
X3102660D01*
Y2788978D01*
X3112845Y2793197D01*
X3124209Y2804562D01*
X3128428Y2814746D01*
D02*
G37*
G36*
X3077260D02*
X3051492D01*
X3055711Y2804562D01*
X3067075Y2793197D01*
X3077260Y2788978D01*
Y2814746D01*
D02*
G37*
G36*
X3056338Y2782000D02*
X3033662D01*
X3012712Y2773322D01*
X2996678Y2757288D01*
X2988000Y2736338D01*
Y2713662D01*
X2996267Y2693705D01*
X2993868Y2688007D01*
X2989430Y2682000D01*
X2970570D01*
X2966133Y2688006D01*
X2963733Y2693705D01*
X2972000Y2713662D01*
Y2736338D01*
X2963322Y2757288D01*
X2947288Y2773322D01*
X2926338Y2782000D01*
X2903662D01*
X2882712Y2773322D01*
X2866678Y2757288D01*
X2858000Y2736338D01*
Y2713662D01*
X2866267Y2693705D01*
X2863867Y2688006D01*
X2859430Y2682000D01*
X2840570D01*
X2836133Y2688007D01*
X2833733Y2693705D01*
X2842000Y2713662D01*
Y2736338D01*
X2833322Y2757288D01*
X2817288Y2773322D01*
X2796338Y2782000D01*
X2773662D01*
X2752712Y2773322D01*
X2736678Y2757288D01*
X2728000Y2736338D01*
Y2713662D01*
X2736678Y2692712D01*
X2752712Y2676678D01*
X2773662Y2668000D01*
X2794430D01*
X2798867Y2661993D01*
X2801267Y2656295D01*
X2793000Y2636338D01*
Y2613662D01*
X2801678Y2592712D01*
X2817712Y2576678D01*
X2838662Y2568000D01*
X2861338D01*
X2882288Y2576678D01*
X2898322Y2592712D01*
X2907000Y2613662D01*
Y2636338D01*
X2898733Y2656295D01*
X2901133Y2661993D01*
X2905570Y2668000D01*
X2924430D01*
X2928867Y2661993D01*
X2931267Y2656295D01*
X2923000Y2636338D01*
Y2613662D01*
X2931678Y2592712D01*
X2947712Y2576678D01*
X2968662Y2568000D01*
X2991338D01*
X3012288Y2576678D01*
X3028322Y2592712D01*
X3037000Y2613662D01*
Y2636338D01*
X3028733Y2656295D01*
X3031133Y2661993D01*
X3035570Y2668000D01*
X3056338D01*
X3077288Y2676678D01*
X3093322Y2692712D01*
X3102000Y2713662D01*
Y2736338D01*
X3093322Y2757288D01*
X3077288Y2773322D01*
X3056338Y2782000D01*
D02*
G37*
G36*
X3272500Y2814126D02*
X3250065Y2809663D01*
X3231045Y2796955D01*
X3218336Y2777935D01*
X3213873Y2755500D01*
Y2650500D01*
X3218336Y2628065D01*
X3231045Y2609045D01*
X3250065Y2596336D01*
X3272500Y2591874D01*
X3294935Y2596336D01*
X3313955Y2609045D01*
X3326664Y2628065D01*
X3331126Y2650500D01*
Y2755500D01*
X3326664Y2777935D01*
X3313955Y2796955D01*
X3294935Y2809663D01*
X3272500Y2814126D01*
D02*
G37*
G36*
X2557500D02*
X2535065Y2809663D01*
X2516045Y2796955D01*
X2503336Y2777935D01*
X2498874Y2755500D01*
Y2650500D01*
X2503336Y2628065D01*
X2516045Y2609045D01*
X2535065Y2596336D01*
X2557500Y2591874D01*
X2579935Y2596336D01*
X2598955Y2609045D01*
X2611664Y2628065D01*
X2616127Y2650500D01*
Y2755500D01*
X2611664Y2777935D01*
X2598955Y2796955D01*
X2579935Y2809663D01*
X2557500Y2814126D01*
D02*
G37*
%LPD*%
D30*
X3045000Y2725000D02*
D03*
X2785000D02*
D03*
X2980000Y2625000D02*
D03*
X2915000Y2725000D02*
D03*
X2850000Y2625000D02*
D03*
D31*
X3272500Y2703000D02*
D03*
X2557500D02*
D03*
D32*
X3365369Y3142435D02*
D03*
X3348241Y3191932D02*
D03*
X3359855Y2985286D02*
D03*
X2837500Y3242500D02*
D03*
X3198424Y3518698D02*
D03*
X3330000Y3510000D02*
D03*
X2455000Y2915000D02*
D03*
X2470000Y2822500D02*
D03*
X3380000Y2755000D02*
D03*
X2940000Y3332500D02*
D03*
X3319314Y3299285D02*
D03*
X3290267Y3389954D02*
D03*
X3261908Y2871523D02*
D03*
X2768910Y3698548D02*
D03*
X3350000Y3707500D02*
D03*
X3348500Y2887500D02*
D03*
X3089960Y2827446D02*
D03*
X2967500Y2840000D02*
D03*
X3361587Y3626587D02*
D03*
X3362835Y3575316D02*
D03*
X3225000Y2942500D02*
D03*
X2830775Y3525289D02*
D03*
X2958057Y3452277D02*
D03*
X3073618Y3410042D02*
D03*
X2540000Y3627500D02*
D03*
X3032500Y3562500D02*
D03*
X2639383Y3634152D02*
D03*
X2913500Y3602500D02*
D03*
X2855000Y3077500D02*
D03*
X2859704Y3135021D02*
D03*
X2538750Y3499000D02*
D03*
X2739364Y3624204D02*
D03*
X2632500Y3407500D02*
D03*
X2585150Y3653918D02*
D03*
D33*
X3065000Y3102500D02*
D03*
X3265000Y3022500D02*
D03*
X3105000D02*
D03*
X3065000Y3182500D02*
D03*
X3105000Y3222500D02*
D03*
X3065000Y3022500D02*
D03*
X3025000D02*
D03*
X3105000Y3102500D02*
D03*
X3065000Y3142500D02*
D03*
X3145000Y2982500D02*
D03*
X3185000Y3022500D02*
D03*
Y3062500D02*
D03*
Y3102500D02*
D03*
X3225000D02*
D03*
X3305000Y3062500D02*
D03*
X3225000D02*
D03*
Y3022500D02*
D03*
D34*
X2540000Y3242500D02*
D03*
X2832500Y2867500D02*
D03*
%TF.MD5,713ebc0b2fbf412674ae0b8e7b79005b*%
M02*
