%TF.GenerationSoftware,Altium Limited,Altium Designer,24.10.1 (45)*%
G04 Layer_Physical_Order=1*
G04 Layer_Color=255*
%FSLAX45Y45*%
%MOMM*%
%TF.SameCoordinates,0DFC8F11-482D-4AB8-A3BE-AF813C361F11*%
%TF.FilePolarity,Positive*%
%TF.FileFunction,Copper,L1,Top,Signal*%
%TF.Part,Single*%
G01*
G75*
%TA.AperFunction,Conductor*%
%ADD10C,0.20000*%
%ADD11C,0.15000*%
%ADD12C,0.25000*%
%ADD13C,0.50000*%
%ADD14C,0.35000*%
%TA.AperFunction,SMDPad,CuDef*%
%ADD15C,1.00000*%
%ADD16R,0.52000X0.52000*%
G04:AMPARAMS|DCode=17|XSize=0.45mm|YSize=1.05mm|CornerRadius=0.0495mm|HoleSize=0mm|Usage=FLASHONLY|Rotation=180.000|XOffset=0mm|YOffset=0mm|HoleType=Round|Shape=RoundedRectangle|*
%AMROUNDEDRECTD17*
21,1,0.45000,0.95100,0,0,180.0*
21,1,0.35100,1.05000,0,0,180.0*
1,1,0.09900,-0.17550,0.47550*
1,1,0.09900,0.17550,0.47550*
1,1,0.09900,0.17550,-0.47550*
1,1,0.09900,-0.17550,-0.47550*
%
%ADD17ROUNDEDRECTD17*%
%TA.AperFunction,ConnectorPad*%
%ADD18R,0.50000X0.70000*%
%ADD19R,0.67248X0.71535*%
%ADD20R,0.35000X0.57500*%
%ADD21R,0.57500X0.35000*%
%TA.AperFunction,SMDPad,CuDef*%
%ADD22R,0.45000X0.50000*%
%TA.AperFunction,BGAPad,CuDef*%
%ADD23C,0.24200*%
%TA.AperFunction,SMDPad,CuDef*%
%ADD24R,0.40000X0.50000*%
%ADD25R,0.50000X0.45000*%
%TA.AperFunction,ConnectorPad*%
%ADD26R,0.35000X0.45000*%
%ADD27R,0.45000X0.35000*%
%TA.AperFunction,SMDPad,CuDef*%
%ADD28R,0.52000X0.52000*%
%TA.AperFunction,NonConductor*%
%ADD29C,0.20000*%
%TA.AperFunction,ComponentPad*%
%ADD30C,0.84000*%
%ADD31O,0.85000X1.90000*%
%TA.AperFunction,ViaPad*%
%ADD32C,0.30000*%
%ADD33C,0.20000*%
%ADD34C,0.50000*%
D10*
X2474216Y3290000D02*
G03*
X2488333Y3295833I0J20000D01*
G01*
X3059410Y3276369D02*
G03*
X3024974Y3299600I-34410J-13869D01*
G01*
X3040137Y3612570D02*
G03*
X3042500Y3612500I2362J39930D01*
G01*
X2954180Y3292557D02*
G03*
X2957368Y3294779I-9789J17442D01*
G01*
X2971138Y2929495D02*
G03*
X2970000Y2922944I18862J-6651D01*
G01*
X3163750Y3585466D02*
G03*
X3163051Y3590224I-19994J-510D01*
G01*
D02*
G03*
X3163044Y3590246I-19295J-5268D01*
G01*
X3166402Y3587706D02*
G03*
X3163870Y3585586I11529J-16344D01*
G01*
X3141843Y3571843D02*
G03*
X3155946Y3577662I0J20001D01*
G01*
X3076604Y3573912D02*
G03*
X3071288Y3573193I0J-20001D01*
G01*
X2972029Y2931835D02*
G03*
X2971138Y2929495I56134J-22704D01*
G01*
X2977106Y2939078D02*
G03*
X2972029Y2931835I13434J-14817D01*
G01*
X2970331Y3299561D02*
G03*
X2957368Y3294779I14J-20001D01*
G01*
X3225003Y3275326D02*
G03*
X3225000Y3274945I19996J-380D01*
G01*
X2875002Y3410000D02*
G03*
X2878015Y3410739I-3243J19736D01*
G01*
X2800000Y3280000D02*
Y3327500D01*
Y3280000D02*
X2837500Y3242500D01*
X2488333Y3295833D02*
X2540000Y3347500D01*
X2452500Y3290000D02*
X2474216D01*
X2893500Y3258500D02*
X2954180Y3292557D01*
X2837500Y3242500D02*
X2877500D01*
X2970331Y3299561D02*
X3024873Y3299599D01*
X3024974Y3299600D01*
X3059410Y3276369D02*
X3065000Y3262500D01*
X3280000Y3520000D02*
X3298750Y3512500D01*
X3330000Y3510000D01*
X3042500Y3612500D02*
X3068750D01*
X2968500Y3616808D02*
X3040137Y3612570D01*
X3305803Y2959197D02*
X3370000Y2895000D01*
X2970000Y2922944D02*
Y2922944D01*
Y2880000D02*
Y2922944D01*
X2538750Y3455000D02*
Y3499000D01*
Y3346250D02*
Y3453750D01*
X3166402Y3587706D02*
X3186726Y3602043D01*
X3163044Y3590246D02*
X3163051Y3590224D01*
X3156863Y3612500D02*
X3163044Y3590246D01*
X3163870Y3585586D02*
X3163870Y3585586D01*
X3163750Y3585466D02*
X3163870Y3585586D01*
X3155946Y3577662D02*
X3163750Y3585466D01*
X3155946Y3577662D02*
X3155946Y3577662D01*
X3116250Y3571843D02*
X3141843D01*
X3076604Y3573912D02*
X3078750D01*
X3093960Y3573098D02*
X3094181Y3569779D01*
X3094666Y3562500D01*
X2977106Y2939078D02*
X2995059Y2955355D01*
X2995059Y2955355D02*
X3025000Y2982500D01*
X2875000Y3327500D02*
X2890000Y3332500D01*
X2940000D01*
X2877500Y3242500D02*
X2893500Y3258500D01*
X3305000Y3262500D02*
X3319314Y3299285D01*
X3220000Y2871523D02*
X3261908D01*
X2775663Y3694500D02*
X2804208D01*
X2771616Y3698548D02*
X2775663Y3694500D01*
X2768910Y3698548D02*
X2771616D01*
X2804208Y3694500D02*
X2820208Y3678500D01*
X2875002Y3410000D02*
X2878015D01*
X2979465D01*
X3225000Y3262500D02*
Y3274945D01*
X3225003Y3275326D02*
X3226330Y3345000D01*
X3230000Y3360000D01*
X3348500Y2887500D02*
X3354000D01*
X3370000Y2895000D01*
X3089960Y2827446D02*
Y2830152D01*
X3115000Y2855192D01*
Y2867500D01*
X3127500Y2880000D02*
X3130000D01*
X3115000Y2867500D02*
X3127500Y2880000D01*
X3332137Y3298164D02*
X3370000Y3336027D01*
Y3430000D01*
X2875000Y3410000D02*
X2875002D01*
X3104197Y3263303D02*
X3105000Y3262500D01*
X3104197Y3263303D02*
Y3285268D01*
X2979465Y3410000D02*
X3104197Y3285268D01*
X3360921Y3577229D02*
X3362835Y3575316D01*
X3319105Y3662500D02*
X3335018Y3646587D01*
X3354377Y3577229D02*
X3360921D01*
X3358881Y3626587D02*
X3361587D01*
X3338881Y3646587D02*
X3358881Y3626587D01*
X3335018Y3646587D02*
X3338881D01*
X3225000Y2942500D02*
Y2982500D01*
X3205000Y2880000D02*
X3220000Y2871523D01*
X3073618Y3410042D02*
X3106250Y3435000D01*
X3078750Y3573912D02*
X3093960Y3573098D01*
X3032500Y3562500D02*
X3071288Y3573193D01*
X2637500Y3700000D02*
X2639383Y3687500D01*
Y3634152D02*
Y3687500D01*
X2913500Y3602500D02*
X2915413Y3604413D01*
X2941913D01*
X3094666Y3562500D02*
X3097000Y3527500D01*
X3097500Y3520000D01*
Y3570000D02*
X3116250Y3571843D01*
X3156863Y3667500D02*
X3163750Y3686250D01*
X3156863Y3612500D02*
Y3667500D01*
X3184079Y3605795D02*
X3213750Y3635466D01*
X3305803Y2959197D02*
Y2981697D01*
X3305000Y2982500D02*
X3305803Y2981697D01*
X3257500Y2880000D02*
Y2882706D01*
X3265000Y2890206D02*
Y2982500D01*
X3257500Y2882706D02*
X3265000Y2890206D01*
X3106250Y3435000D02*
X3113750Y3453750D01*
X3068750Y3612500D02*
X3078750D01*
X3097500Y3620000D01*
X2952500Y3615000D02*
X2968500Y3616808D01*
X2941913Y3604413D02*
X2952500Y3615000D01*
X2800000Y3327500D02*
Y3410000D01*
X2737500Y3470000D02*
X2797500Y3410000D01*
X2717500Y3470000D02*
X2737500D01*
X2797500Y3410000D02*
X2800000D01*
X2710000Y3477500D02*
X2717500Y3470000D01*
X3287500Y3612500D02*
X3319105D01*
X3280000Y3620000D02*
X3287500Y3612500D01*
X3319105D02*
X3354377Y3577229D01*
X2538750Y3455000D02*
X2587500D01*
X2537500D02*
X2538750D01*
X2968750Y2878750D02*
X2970000Y2880000D01*
X2968750Y2841250D02*
Y2878750D01*
X2967500Y2840000D02*
X2968750Y2841250D01*
X3319105Y3662500D02*
X3319105D01*
X3311250Y3670355D02*
X3319105Y3662500D01*
X3271250Y3670355D02*
X3311250D01*
X3263750Y3677855D02*
X3271250Y3670355D01*
X3263750Y3677855D02*
Y3686250D01*
X3213750Y3635466D02*
Y3686250D01*
X2537500Y3455000D02*
X2538750Y3453750D01*
D11*
X3322847Y3112858D02*
G03*
X3324800Y3114125I-17847J29642D01*
G01*
X3308310Y3104156D02*
G03*
X3309228Y3104659I-6750J13396D01*
G01*
X3322361Y3152571D02*
G03*
X3336027Y3167186I-17361J29929D01*
G01*
X3330005Y3509999D02*
G03*
X3331196Y3509952I1191J14953D01*
G01*
X3280218Y3102860D02*
G03*
X3279635Y3102857I-217J-14999D01*
G01*
X3251143Y3560000D02*
G03*
X3235833Y3553889I107J-22500D01*
G01*
X2771628Y3643315D02*
G03*
X2757259Y3657159I-32265J-19111D01*
G01*
X2743237Y3664773D02*
G03*
X2732500Y3667500I-10737J-19773D01*
G01*
X2536142Y3544244D02*
G03*
X2544579Y3548445I-2129J14849D01*
G01*
X2487500Y3537500D02*
G03*
X2490694Y3537727I0J22500D01*
G01*
X2876000Y3720320D02*
G03*
X2861001Y3735320I-15001J-1D01*
G01*
X2670086Y3739192D02*
G03*
X2655000Y3744999I-15086J-16692D01*
G01*
X2769206Y3736046D02*
G03*
X2768601Y3736046I-297J-37499D01*
G01*
X2670086Y3739191D02*
G03*
X2680268Y3735320I10058J11128D01*
G01*
X2550745Y3734429D02*
G03*
X2547500Y3725199I11755J-9318D01*
G01*
X2570000Y3745000D02*
G03*
X2552367Y3736476I0J-22500D01*
G01*
X3309228Y3104659D02*
X3322847Y3112858D01*
X3305000Y3102500D02*
X3308310Y3104156D01*
X3324800Y3114125D02*
X3365369Y3142435D01*
X3336026Y3167186D02*
X3348241Y3191932D01*
X3305000Y3142500D02*
X3322361Y3152571D01*
X3331196Y3509952D02*
X3355000D01*
X3330000Y3510000D02*
X3330005Y3509999D01*
X3280218Y3102859D02*
X3305000Y3102500D01*
X3265000D02*
X3279635Y3102857D01*
X3265000Y3062500D02*
Y3102500D01*
X3251143Y3560000D02*
X3258750D01*
X3198424Y3518698D02*
X3235833Y3553889D01*
X3258750Y3560000D02*
X3280000Y3570000D01*
X3355000Y3509952D02*
X3370000Y3505000D01*
X2455000Y3110356D02*
Y3207500D01*
X2771628Y3643315D02*
X2771708Y3643181D01*
X2725000Y3667500D02*
X2732500D01*
X2544579Y3548445D02*
X2555227Y3559093D01*
X2544579Y3548445D02*
X2544579Y3548445D01*
X2490694Y3537727D02*
X2536142Y3544244D01*
X2480000Y3537500D02*
X2487500D01*
X2632500Y3346000D02*
Y3407500D01*
X2620000Y3327500D02*
X2629278Y3341231D01*
X2632500Y3346000D01*
X2769206Y3736046D02*
X2861001Y3735319D01*
X2743237Y3664773D02*
X2757259Y3657159D01*
X2710000Y3677500D02*
X2725000Y3667500D01*
X2680268Y3735320D02*
X2768601Y3736046D01*
X2876000Y3425000D02*
Y3720320D01*
X2822580Y3580000D02*
X2830775Y3571806D01*
Y3525289D02*
Y3571806D01*
X2475000Y3617500D02*
X2496820D01*
X2555227Y3559093D01*
X2465000Y3627500D02*
X2475000Y3617500D01*
X2820208Y3598501D02*
X2822580Y3580000D01*
X2876000Y3425000D02*
X2878016Y3410739D01*
X2616252Y3744999D02*
X2655000D01*
X2537500Y3700000D02*
X2547500Y3715000D01*
X2550745Y3734429D02*
X2552367Y3736476D01*
X2547500Y3715000D02*
Y3725199D01*
X2570000Y3745000D02*
X2616252Y3744999D01*
X2465000Y3527500D02*
X2480000Y3537500D01*
X2797888Y3617000D02*
X2801708D01*
X2820208Y3598501D01*
X2771708Y3643181D02*
X2797888Y3617000D01*
X2739160Y3624000D02*
X2739364Y3624204D01*
X2725000Y3624000D02*
X2739160D01*
X2710000Y3627500D02*
X2725000Y3624000D01*
X2633479Y3440000D02*
X2637500Y3455000D01*
X2632500Y3407500D02*
X2633479Y3440000D01*
X2627500Y3465000D02*
Y3486820D01*
Y3465000D02*
X2637500Y3455000D01*
X2602654Y3511666D02*
X2627500Y3486820D01*
X2601967Y3511666D02*
X2602654D01*
X2555227Y3558406D02*
Y3559093D01*
Y3558406D02*
X2601967Y3511666D01*
X2465000Y3477500D02*
Y3527500D01*
X2586325Y3698825D02*
X2587500Y3700000D01*
X2586325Y3655093D02*
Y3698825D01*
X2585150Y3653918D02*
X2586325Y3655093D01*
D12*
X3332122Y3011354D02*
G03*
X3310585Y3021704I-27122J-28854D01*
G01*
X3306991Y3372566D02*
G03*
X3298305Y3384073I-23450J-8669D01*
G01*
X2787550Y2855000D02*
G03*
X2797229Y2856477I0J32450D01*
G01*
X3305000Y3022500D02*
X3310585Y3021704D01*
X3332122Y3011354D02*
X3359855Y2985286D01*
X2928176Y3077500D02*
X2953176Y3102500D01*
X2855000Y3077500D02*
X2928176D01*
X3306990Y3372566D02*
X3307015Y3372500D01*
X2797229Y2856477D02*
X2832500Y2867500D01*
X2739008Y2855000D02*
X2787550D01*
X3370000Y2815000D02*
X3380000Y2801500D01*
Y2755000D02*
Y2801500D01*
X3290267Y3389954D02*
X3298305Y3384073D01*
X3307015Y3372500D02*
X3310000Y3360000D01*
X3047460Y2727460D02*
Y2877460D01*
X3045000Y2725000D02*
X3047460Y2727460D01*
Y2877460D02*
X3050000Y2880000D01*
X2953176Y3102500D02*
X3025000D01*
X3008597Y3222100D02*
X3024600D01*
X2948997Y3162500D02*
X3008597Y3222100D01*
X3024600D02*
X3025000Y3222500D01*
X2877500Y3162500D02*
X2948997D01*
X3265000Y3310000D02*
X3310000Y3355000D01*
Y3360000D01*
X3265000Y3262500D02*
Y3310000D01*
X3050000Y2951497D02*
X3064600Y2966097D01*
Y2982100D02*
X3065000Y2982500D01*
X3064600Y2966097D02*
Y2982100D01*
X3050000Y2880000D02*
Y2951497D01*
X2958057Y3452277D02*
Y3516500D01*
X2715000Y2879009D02*
X2739008Y2855000D01*
X2715000Y2879009D02*
Y2925000D01*
X2705000Y2935000D02*
X2715000Y2925000D01*
X2952500Y3535000D02*
X2958057Y3516500D01*
D13*
X2539500Y3022958D02*
G03*
X2540532Y3033064I-48969J10106D01*
G01*
X2541500Y3183500D02*
X2542500Y3182500D01*
X2540000Y3242500D02*
X2541500Y3183500D01*
X2455000Y2915000D02*
Y2993876D01*
X2452500Y3004644D02*
X2455000Y2993876D01*
X2477902Y2989879D02*
X2535000Y3005000D01*
X2535000D02*
X2536000Y3006000D01*
X2539500Y3022958D01*
X2540532Y3033064D02*
Y3100532D01*
X2542500Y3182500D02*
X2639637Y3180379D01*
D14*
X2670775Y2812647D02*
G03*
X2549999Y2857500I-120776J-140180D01*
G01*
X2673004Y2810580D02*
G03*
X2670775Y2812646I-35087J-35622D01*
G01*
X2770000Y2990000D02*
G03*
X2720000Y3040000I-50000J0D01*
G01*
X2690000D02*
G03*
X2640000Y2990000I0J-50000D01*
G01*
X2745246Y2739421D02*
G03*
X2780233Y2725000I35131J35579D01*
G01*
X2527500Y2880000D02*
X2549999Y2857500D01*
X2527500Y2880000D02*
Y2925000D01*
X2670774Y2812646D02*
X2670775Y2812646D01*
X2673004Y2810580D02*
X2745246Y2739421D01*
X2690000Y3040000D02*
X2720000D01*
X2770000Y2935000D02*
Y2990000D01*
X2640000Y2935000D02*
Y2990000D01*
X2780233Y2725000D02*
X2785000Y2725000D01*
X2527500Y2925000D02*
X2630000D01*
X2640000Y2935000D01*
D15*
X2892500Y2970000D02*
D03*
D16*
X2542500Y3182500D02*
D03*
Y3102500D02*
D03*
X2535000Y2925000D02*
D03*
Y3005000D02*
D03*
X2877500Y3242500D02*
D03*
Y3162500D02*
D03*
X2820208Y3598501D02*
D03*
Y3678500D02*
D03*
X2952500Y3535000D02*
D03*
Y3615000D02*
D03*
X3370000Y2815000D02*
D03*
Y2895000D02*
D03*
D17*
X2640000Y3180000D02*
D03*
X2770000D02*
D03*
Y2935000D02*
D03*
X2705000D02*
D03*
X2640000D02*
D03*
D18*
X2452500Y3290000D02*
D03*
Y3200000D02*
D03*
D19*
Y3100357D02*
D03*
Y3004644D02*
D03*
D20*
X3263750Y3686250D02*
D03*
X3213750D02*
D03*
X3163750D02*
D03*
X3113750D02*
D03*
Y3453750D02*
D03*
X3163750D02*
D03*
X3213750D02*
D03*
X3263750D02*
D03*
D21*
X3097500Y3620000D02*
D03*
Y3570000D02*
D03*
Y3520000D02*
D03*
X3280000D02*
D03*
Y3570000D02*
D03*
Y3620000D02*
D03*
D22*
X3370000Y3505000D02*
D03*
Y3430000D02*
D03*
D23*
X3305000Y2982500D02*
D03*
X3265000D02*
D03*
X3225000D02*
D03*
X3185000D02*
D03*
X3145000D02*
D03*
X3105000D02*
D03*
X3065000D02*
D03*
X3025000D02*
D03*
X3305000Y3022500D02*
D03*
X3265000D02*
D03*
X3225000D02*
D03*
X3185000D02*
D03*
X3145000D02*
D03*
X3105000D02*
D03*
X3065000D02*
D03*
X3025000D02*
D03*
X3305000Y3062500D02*
D03*
X3265000D02*
D03*
X3225000D02*
D03*
X3185000D02*
D03*
X3145000D02*
D03*
X3105000D02*
D03*
X3065000D02*
D03*
X3025000D02*
D03*
X3305000Y3102500D02*
D03*
X3265000D02*
D03*
X3225000D02*
D03*
X3185000D02*
D03*
X3145000D02*
D03*
X3105000D02*
D03*
X3065000D02*
D03*
X3025000D02*
D03*
X3305000Y3142500D02*
D03*
X3265000D02*
D03*
X3225000D02*
D03*
X3185000D02*
D03*
X3145000D02*
D03*
X3105000D02*
D03*
X3065000D02*
D03*
X3025000D02*
D03*
X3305000Y3182500D02*
D03*
X3265000D02*
D03*
X3225000D02*
D03*
X3185000D02*
D03*
X3145000D02*
D03*
X3105000D02*
D03*
X3065000D02*
D03*
X3025000D02*
D03*
X3305000Y3222500D02*
D03*
X3265000D02*
D03*
X3225000D02*
D03*
X3185000D02*
D03*
X3145000D02*
D03*
X3105000D02*
D03*
X3065000D02*
D03*
X3025000D02*
D03*
X3305000Y3262500D02*
D03*
X3265000D02*
D03*
X3225000D02*
D03*
X3185000D02*
D03*
X3145000D02*
D03*
X3105000D02*
D03*
X3065000D02*
D03*
X3025000D02*
D03*
D24*
X3310000Y3360000D02*
D03*
X3230000D02*
D03*
D25*
X3130000Y2880000D02*
D03*
X3205000D02*
D03*
X2800000Y3410000D02*
D03*
X2875000D02*
D03*
X2800000Y3327500D02*
D03*
X2875000D02*
D03*
D26*
X2637500Y3455000D02*
D03*
X2587500D02*
D03*
X2537500D02*
D03*
Y3700000D02*
D03*
X2587500D02*
D03*
X2637500D02*
D03*
D27*
X2465000Y3477500D02*
D03*
Y3527500D02*
D03*
Y3577500D02*
D03*
Y3627500D02*
D03*
Y3677500D02*
D03*
X2710000D02*
D03*
Y3627500D02*
D03*
Y3577500D02*
D03*
Y3527500D02*
D03*
Y3477500D02*
D03*
D28*
X2620000Y3347500D02*
D03*
X2540000D02*
D03*
X3050000Y2880000D02*
D03*
X2970000D02*
D03*
D29*
X2892500Y2970000D02*
X2984196Y3061697D01*
X3024197D01*
X3025000Y3062500D01*
D30*
X3045000Y2725000D02*
D03*
X2785000D02*
D03*
X2980000Y2625000D02*
D03*
X2915000Y2725000D02*
D03*
X2850000Y2625000D02*
D03*
D31*
X3272500Y2703000D02*
D03*
X2557500D02*
D03*
D32*
X3365369Y3142435D02*
D03*
X3348241Y3191932D02*
D03*
X3359855Y2985286D02*
D03*
X2837500Y3242500D02*
D03*
X3198424Y3518698D02*
D03*
X3330000Y3510000D02*
D03*
X2455000Y2915000D02*
D03*
X2470000Y2822500D02*
D03*
X3380000Y2755000D02*
D03*
X2940000Y3332500D02*
D03*
X3319314Y3299285D02*
D03*
X3290267Y3389954D02*
D03*
X3261908Y2871523D02*
D03*
X2768910Y3698548D02*
D03*
X3350000Y3707500D02*
D03*
X3348500Y2887500D02*
D03*
X3089960Y2827446D02*
D03*
X2967500Y2840000D02*
D03*
X3361587Y3626587D02*
D03*
X3362835Y3575316D02*
D03*
X3225000Y2942500D02*
D03*
X2830775Y3525289D02*
D03*
X2958057Y3452277D02*
D03*
X3073618Y3410042D02*
D03*
X2540000Y3627500D02*
D03*
X3032500Y3562500D02*
D03*
X2639383Y3634152D02*
D03*
X2913500Y3602500D02*
D03*
X2855000Y3077500D02*
D03*
X2859704Y3135021D02*
D03*
X2538750Y3499000D02*
D03*
X2739364Y3624204D02*
D03*
X2632500Y3407500D02*
D03*
X2585150Y3653918D02*
D03*
D33*
X3065000Y3102500D02*
D03*
X3265000Y3022500D02*
D03*
X3105000D02*
D03*
X3065000Y3182500D02*
D03*
X3105000Y3222500D02*
D03*
X3065000Y3022500D02*
D03*
X3025000D02*
D03*
X3105000Y3102500D02*
D03*
X3065000Y3142500D02*
D03*
X3145000Y2982500D02*
D03*
X3185000Y3022500D02*
D03*
Y3062500D02*
D03*
Y3102500D02*
D03*
X3225000D02*
D03*
X3305000Y3062500D02*
D03*
X3225000D02*
D03*
Y3022500D02*
D03*
D34*
X2540000Y3242500D02*
D03*
X2832500Y2867500D02*
D03*
%TF.MD5,a7c5f2693162ff4792c1b495ad8b8029*%
M02*
