%TF.GenerationSoftware,Altium Limited,Altium Designer,24.10.1 (45)*%
G04 Layer_Physical_Order=6*
G04 Layer_Color=16711680*
%FSLAX45Y45*%
%MOMM*%
%TF.SameCoordinates,0DFC8F11-482D-4AB8-A3BE-AF813C361F11*%
%TF.FilePolarity,Positive*%
%TF.FileFunction,Copper,L6,Bot,Signal*%
%TF.Part,Single*%
G01*
G75*
%TA.AperFunction,Conductor*%
%ADD10C,0.20000*%
%ADD11C,0.15000*%
%ADD12C,0.25000*%
%ADD13C,0.50000*%
%TA.AperFunction,SMDPad,CuDef*%
%ADD15C,1.00000*%
%ADD25R,0.50000X0.45000*%
%TA.AperFunction,ComponentPad*%
%ADD30C,0.84000*%
%ADD31O,0.85000X1.90000*%
%TA.AperFunction,ViaPad*%
%ADD32C,0.30000*%
%ADD33C,0.20000*%
%ADD34C,0.50000*%
%TA.AperFunction,SMDPad,CuDef*%
%ADD35R,1.31000X0.53000*%
%TA.AperFunction,ConnectorPad*%
%ADD36R,0.45000X0.85000*%
%TA.AperFunction,SMDPad,CuDef*%
%ADD37O,1.00000X1.52400*%
%ADD38R,0.80000X0.70000*%
%ADD39R,0.70000X0.50000*%
%ADD40R,0.71535X0.67248*%
D10*
X3322322Y3101255D02*
G03*
X3328703Y3088251I19927J1711D01*
G01*
X3320067Y3132313D02*
G03*
X3318371Y3141725I-19961J1261D01*
G01*
X3320067Y3132313D02*
G03*
X3320147Y3126577I39933J-2313D01*
G01*
X3248046Y3222399D02*
G03*
X3247647Y3225306I-19961J-1260D01*
G01*
X3235577Y3545510D02*
G03*
X3234481Y3550107I-19867J-2309D01*
G01*
X3236781Y3504872D02*
G03*
X3236955Y3505868I-19609J3940D01*
G01*
X3122516Y3581631D02*
G03*
X3136659Y3575773I14142J14142D01*
G01*
X3234481Y3550107D02*
G03*
X3221817Y3569968I-51785J-19052D01*
G01*
X3216106Y3403329D02*
G03*
X3216212Y3372890I73492J-14964D01*
G01*
X3261313Y2987695D02*
G03*
X3290933Y2998995I3687J34805D01*
G01*
X3322327Y3032089D02*
G03*
X3317292Y3028077I9785J-17444D01*
G01*
X3322327Y3032089D02*
G03*
X3328703Y3088251I-17327J30410D01*
G01*
X3261313Y2987695D02*
G03*
X3241339Y2976549I-1991J-19901D01*
G01*
X3110397Y3062345D02*
G03*
X3132859Y3051445I30900J35081D01*
G01*
X3031274Y3151859D02*
G03*
X3030000Y3142500I33726J-9359D01*
G01*
Y3102500D02*
G03*
X3065002Y3067500I35000J0D01*
G01*
X3110189Y3062528D02*
G03*
X3097059Y3067462I-13154J-15067D01*
G01*
X3237988Y3512809D02*
G03*
X3238157Y3523315I-39564J5888D01*
G01*
X3285924Y3486066D02*
G03*
X3286181Y3487453I-19523J4346D01*
G01*
X3297469Y3539030D02*
G03*
X3296368Y3554254I-18990J6279D01*
G01*
X3296368Y3554254D02*
G03*
X3292796Y3559276I-17889J-8945D01*
G01*
X3285924Y3486066D02*
G03*
X3285388Y3483079I39076J-8546D01*
G01*
X3292022Y3522557D02*
G03*
X3290440Y3515919I37978J-12557D01*
G01*
X2959773Y3297729D02*
G03*
X2942062Y3372447I-19773J34771D01*
G01*
X2993325Y3385239D02*
G03*
X2988039Y3390096I-53326J-52739D01*
G01*
X3138065Y3049709D02*
G03*
X3132860Y3051445I-8869J-17927D01*
G01*
X2980561Y3396434D02*
G03*
X2981871Y3395240I14121J14165D01*
G01*
X3140000Y3228713D02*
G03*
X3134220Y3242777I-20001J-0D01*
G01*
X3141724Y3047479D02*
G03*
X3138428Y3049530I-12165J-15876D01*
G01*
X2944579Y3289088D02*
G03*
X2940328Y3257675I9963J-17343D01*
G01*
X2910576Y3374072D02*
G03*
X2909568Y3374098I-1011J-19975D01*
G01*
X3141787Y3047431D02*
G03*
X3151111Y3041250I43213J55069D01*
G01*
X3284033Y3478224D02*
G03*
X3285382Y3483037I-18434J7762D01*
G01*
X3252733Y3403887D02*
G03*
X3250431Y3380246I36865J-15522D01*
G01*
X3282994Y3224309D02*
G03*
X3281874Y3232676I-54914J-3095D01*
G01*
X3282995Y3224310D02*
G03*
X3284706Y3217162I19976J1003D01*
G01*
X2938398Y3417441D02*
G03*
X2941236Y3415986I19658J34836D01*
G01*
X2980560Y3396436D02*
G03*
X2974874Y3400394I-14097J-14188D01*
G01*
X2807406Y3491415D02*
G03*
X2797571Y3494000I-9835J-17416D01*
G01*
X2858923Y3374098D02*
G03*
X2858515Y3374093I35J-20000D01*
G01*
X3185000Y3022500D02*
G03*
X3184821Y3022599I-9765J-17454D01*
G01*
X3157774Y3080505D02*
G03*
X3168056Y3071875I27225J21995D01*
G01*
X3140000Y3109554D02*
G03*
X3144406Y3097032I20001J1D01*
G01*
X3240071Y3612005D02*
G03*
X3225929Y3617863I-14142J-14142D01*
G01*
X3221817Y3569968D02*
G03*
X3207729Y3575773I-14089J-14195D01*
G01*
X3164031Y2953126D02*
G03*
X3156167Y2929513I10923J-16754D01*
G01*
X3209748Y2997751D02*
G03*
X3215662Y3005622I-24748J24749D01*
G01*
X3164031Y2953126D02*
G03*
X3169800Y2957802I-19031J29374D01*
G01*
X3031332Y3152063D02*
G03*
X3026302Y3171700I-19218J5540D01*
G01*
X2664516Y3369000D02*
G03*
X2664753Y3369005I-288J19999D01*
G01*
X2664311Y3368999D02*
G03*
X2663369Y3368974I44J-20000D01*
G01*
X2578575Y3387513D02*
G03*
X2599348Y3365815I19927J-1716D01*
G01*
X2578575Y3387513D02*
G03*
X2545500Y3430676I-39825J3737D01*
G01*
X3284706Y3217162D02*
X3318370Y3141725D01*
X3320147Y3126577D02*
X3322321Y3101255D01*
X3253183Y3127979D02*
Y3127980D01*
X3248052Y3222301D02*
X3253183Y3127980D01*
X3248046Y3222399D02*
X3248052Y3222301D01*
X3236771Y3504822D02*
X3236781Y3504872D01*
X3086500Y3617648D02*
X3122516Y3581631D01*
X3136659Y3575773D02*
X3207729Y3575773D01*
X3216212Y3372890D02*
X3247647Y3225306D01*
X3216106Y3403329D02*
X3236771Y3504822D01*
X3290933Y2998995D02*
X3317292Y3028077D01*
X3225000Y2942500D02*
X3241339Y2976549D01*
X3030000Y3102500D02*
Y3142500D01*
X3065002Y3067500D02*
X3097059Y3067462D01*
X3110189Y3062528D02*
X3110397Y3062345D01*
X3031274Y3151859D02*
X3031331Y3152063D01*
X3235577Y3545510D02*
X3238157Y3523315D01*
X3236955Y3505868D02*
X3237988Y3512809D01*
X3286181Y3487453D02*
X3290440Y3515919D01*
X3292022Y3522557D02*
X3297469Y3539030D01*
X3297884Y3684144D02*
X3308500Y3707500D01*
X3296000Y3680000D02*
X3297884Y3684144D01*
X3169000Y3680000D02*
X3296000D01*
X2487500Y3150000D02*
X2507500Y3170000D01*
X2472500Y3150000D02*
X2487500D01*
X2470000Y2822500D02*
X2477500Y2847500D01*
X2909566Y3374098D02*
X2909568Y3374098D01*
X2730000Y3317500D02*
X2785500Y3332500D01*
X3141724Y3047479D02*
X3141787Y3047431D01*
X2981871Y3395240D02*
X2988038Y3390096D01*
X2944579Y3289088D02*
X2959773Y3297729D01*
X2858923Y3374098D02*
X2909566D01*
X3138065Y3049709D02*
X3138428Y3049530D01*
X3140000Y3109554D02*
Y3228713D01*
X2980560Y3396436D02*
X2980561Y3396434D01*
X2785500Y3332500D02*
X2940000D01*
X2910576Y3374072D02*
X2942062Y3372447D01*
X2993325Y3385239D02*
X3134220Y3242776D01*
X2940328Y3257674D02*
X2940360Y3257642D01*
X3026257Y3171746D01*
X3282994Y3224309D02*
X3282995Y3224310D01*
X3285382Y3483037D02*
X3285388Y3483079D01*
X3252733Y3403887D02*
X3284033Y3478224D01*
X3250430Y3380246D02*
X3281874Y3232676D01*
X3292693Y3559381D02*
X3292796Y3559275D01*
X3261908Y2871523D02*
X3283500D01*
X3296000Y2895000D01*
X2858415Y3374091D02*
X2858515Y3374093D01*
X2676145Y3494000D02*
X2797571D01*
X2807406Y3491415D02*
X2938398Y3417441D01*
X2664753Y3369005D02*
X2858415Y3374091D01*
X2941236Y3415986D02*
X2974874Y3400394D01*
X3308500Y3707500D02*
X3350000D01*
X2477500Y2847500D02*
X2585000D01*
X2590000Y2852500D01*
X3225000Y3062500D02*
X3226213D01*
X3151111Y3041250D02*
X3184821Y3022599D01*
X3168056Y3071875D02*
X3185000Y3062500D01*
X3144406Y3097032D02*
X3157774Y3080505D01*
X3240071Y3612005D02*
X3292693Y3559381D01*
X3202219Y3617863D02*
X3225929D01*
X3201855Y3617500D02*
X3202219Y3617863D01*
X3121500Y3632145D02*
X3136145Y3617500D01*
X3121500Y3632145D02*
Y3705855D01*
X3074855Y3752500D02*
X3121500Y3705855D01*
X3009145Y3752500D02*
X3074855D01*
X2974145Y3717500D02*
X3009145Y3752500D01*
X2915000Y3705000D02*
X2927500Y3717500D01*
X2915000Y3685000D02*
Y3705000D01*
X3086500Y3617648D02*
Y3620500D01*
X3042000Y3665000D02*
X3086500Y3620500D01*
X3136145Y3617500D02*
X3201855D01*
X2927500Y3717500D02*
X2974145D01*
X3156166Y2929513D02*
X3156915Y2927500D01*
X3169000Y2895000D01*
X3169800Y2957802D02*
X3209748Y2997751D01*
X3215662Y3005622D02*
X3225000Y3022500D01*
X3042000Y3665000D02*
Y3685000D01*
X2490000Y3567500D02*
X2602645D01*
X2676145Y3494000D01*
X3026257Y3171746D02*
X3026302Y3171700D01*
X2490000Y3317500D02*
X2730000D01*
X2523500Y3692500D02*
X2540000Y3676000D01*
Y3627500D02*
Y3676000D01*
X2490000Y3692500D02*
X2523500D01*
X2664311Y3368999D02*
X2664516Y3369000D01*
X2599348Y3365815D02*
X2599487Y3365822D01*
X3042000Y2895000D02*
Y2900000D01*
Y2875000D02*
Y2895000D01*
X2599487Y3365822D02*
X2663369Y3368974D01*
X2992706Y2862500D02*
X3029500D01*
X3042000Y2875000D01*
X2970206Y2840000D02*
X2992706Y2862500D01*
X2967500Y2840000D02*
X2970206D01*
X2490000Y3442500D02*
X2545500Y3430676D01*
D11*
X3388901Y3077985D02*
G03*
X3387607Y3071928I13706J-6096D01*
G01*
X3402868Y3143239D02*
G03*
X3399061Y3159541I-37500J-162D01*
G01*
X3388943Y3078079D02*
G03*
X3402867Y3143239I-142346J64486D01*
G01*
X3397593Y3165854D02*
G03*
X3399061Y3159541I14999J160D01*
G01*
X3390698Y2963955D02*
G03*
X3388109Y2955582I12411J-8424D01*
G01*
X3390698Y2963955D02*
G03*
X3390514Y3006879I-30842J21331D01*
G01*
X3387851Y3015254D02*
G03*
X3390514Y3006879I14999J158D01*
G01*
X3384039Y2870006D02*
G03*
X3388432Y2880677I-10607J10607D01*
G01*
X3397232Y3249510D02*
G03*
X3396763Y3253167I-15000J-65D01*
G01*
X3237807Y3072630D02*
G03*
X3233267Y3069554I6001J-13747D01*
G01*
X3237807Y3072630D02*
G03*
X3256805Y3109184I-12807J29870D01*
G01*
X3253183Y3127977D02*
G03*
X3253504Y3124894I15001J2D01*
G01*
X3226210Y3062500D02*
G03*
X3226326Y3062613I-10452J10758D01*
G01*
X3161938Y3491492D02*
G03*
X3168378Y3494490I-2932J14712D01*
G01*
X3143860Y3491553D02*
G03*
X3161938Y3491492I9186J43620D01*
G01*
X2785444Y3621161D02*
G03*
X2786409Y3621130I965J14970D01*
G01*
X2877336Y3548153D02*
G03*
X2877007Y3548218I-3081J-14680D01*
G01*
X3143786Y3491569D02*
G03*
X3143860Y3491553I9261J43604D01*
G01*
X2869002Y3552319D02*
G03*
X2876891Y3548240I10525J10689D01*
G01*
X3388901Y3077985D02*
X3388943Y3078079D01*
X3397232Y3249510D02*
X3397593Y3165854D01*
X3387607Y3071928D02*
X3387851Y3015254D01*
X3364033Y2850000D02*
X3384039Y2870006D01*
X3388109Y2955582D02*
X3388432Y2880677D01*
X3330000Y3510000D02*
X3396750Y3253220D01*
X3396763Y3253167D01*
X3226210Y3062500D02*
X3226213D01*
X3226326Y3062613D02*
X3233267Y3069554D01*
X3253503Y3124894D02*
X3256805Y3109184D01*
X3253183Y3127977D02*
X3253183Y3127979D01*
X3168378Y3494490D02*
X3198424Y3518698D01*
X3347820Y2850000D02*
X3364033D01*
X3327820Y2830000D02*
X3347820Y2850000D01*
X3137180Y2830000D02*
X3327820D01*
X3124000Y2843180D02*
X3137180Y2830000D01*
X3124000Y2843180D02*
Y2846439D01*
X3105000Y2865439D02*
X3124000Y2846439D01*
X3105000Y2865439D02*
Y3022500D01*
X2741409Y3624000D02*
X2785444Y3621161D01*
X2786409Y3621130D02*
X2800190D01*
X2877336Y3548153D02*
X3143786Y3491568D01*
X2868961Y3552359D02*
X2869001Y3552319D01*
X2876891Y3548240D02*
X2877007Y3548218D01*
X2800190Y3621130D02*
X2868961Y3552359D01*
X2652559Y3423500D02*
X2711000D01*
X2636559Y3407500D02*
X2652559Y3423500D01*
X2711000D02*
X2730000Y3442500D01*
X2632500Y3407500D02*
X2636559D01*
X2741205Y3624204D02*
X2741409Y3624000D01*
X2739364Y3624204D02*
X2741205D01*
D12*
X2540372Y3029999D02*
G03*
X2525529Y3025116I1J-25000D01*
G01*
X2519139Y3020401D02*
G03*
X2510091Y3007645I14844J-20117D01*
G01*
X3023737Y3023630D02*
G03*
X3007064Y3030002I-16674J-18628D01*
G01*
X2519139Y3020401D02*
X2525529Y3025116D01*
X2540372Y3029999D02*
X3007064Y3030002D01*
X2502500Y2982500D02*
X2510091Y3007645D01*
X2480000Y2970000D02*
X2502500Y2982500D01*
X2832500Y2867500D02*
X2860000Y2895000D01*
X2915000D01*
X2810735Y2852500D02*
X2825735Y2867500D01*
X2832500D01*
X2665000Y2852500D02*
X2810735D01*
X2783000Y3553500D02*
X2830775Y3525289D01*
X2730000Y3567500D02*
X2783000Y3553500D01*
X3023737Y3023630D02*
X3025000Y3022500D01*
X2773624Y2943876D02*
X2832500Y2867500D01*
X2750356Y2965000D02*
X2773624Y2943876D01*
X2572500Y2967500D02*
X2674643D01*
X2677143Y2965000D01*
X2570000Y2970000D02*
X2572500Y2967500D01*
X2725000Y3092500D02*
X2752500Y3077500D01*
X2855000D01*
X2802226Y3192500D02*
X2859704Y3135021D01*
X2725000Y3192500D02*
X2802226D01*
D13*
X2584513Y3202500D02*
G03*
X2582821Y3204432I-38445J-31970D01*
G01*
X2581800Y3205541D02*
G03*
X2581796Y3205546I-36801J-33849D01*
G01*
X2519176Y3221458D02*
G03*
X2512536Y3213113I35582J-35128D01*
G01*
X2577540Y3210172D02*
G03*
X2573039Y3214498I-36830J-33817D01*
G01*
X2577540Y3210172D02*
X2581796Y3205546D01*
X2491590Y3180093D02*
X2512536Y3213113D01*
X2584513Y3202500D02*
X2595000Y3192500D01*
X2519176Y3221458D02*
X2540000Y3242500D01*
X2573039Y3214498D01*
X2581800Y3205541D02*
X2582821Y3204431D01*
X2472500Y3150000D02*
X2491590Y3180093D01*
X2595000Y3092500D02*
Y3192500D01*
X3140000Y2605000D02*
Y2630600D01*
X3045600Y2725000D02*
X3140000Y2630600D01*
X3045000Y2725000D02*
X3045600D01*
X2697500Y2610000D02*
Y2636850D01*
X2785000Y2724350D01*
Y2725000D01*
D15*
X2472500Y3150000D02*
D03*
X2470000Y2822500D02*
D03*
D25*
X2665000Y2852500D02*
D03*
X2590000D02*
D03*
D30*
X3045000Y2725000D02*
D03*
X2785000D02*
D03*
X2980000Y2625000D02*
D03*
X2915000Y2725000D02*
D03*
X2850000Y2625000D02*
D03*
D31*
X3272500Y2703000D02*
D03*
X2557500D02*
D03*
D32*
X3365369Y3142435D02*
D03*
X3348241Y3191932D02*
D03*
X3359855Y2985286D02*
D03*
X2837500Y3242500D02*
D03*
X3198424Y3518698D02*
D03*
X3330000Y3510000D02*
D03*
X2455000Y2915000D02*
D03*
X2470000Y2822500D02*
D03*
X3380000Y2755000D02*
D03*
X2940000Y3332500D02*
D03*
X3319314Y3299285D02*
D03*
X3290267Y3389954D02*
D03*
X3261908Y2871523D02*
D03*
X2768910Y3698548D02*
D03*
X3350000Y3707500D02*
D03*
X3348500Y2887500D02*
D03*
X3089960Y2827446D02*
D03*
X2967500Y2840000D02*
D03*
X3361587Y3626587D02*
D03*
X3362835Y3575316D02*
D03*
X3225000Y2942500D02*
D03*
X2830775Y3525289D02*
D03*
X2958057Y3452277D02*
D03*
X3073618Y3410042D02*
D03*
X2540000Y3627500D02*
D03*
X3032500Y3562500D02*
D03*
X2639383Y3634152D02*
D03*
X2913500Y3602500D02*
D03*
X3025000Y3022500D02*
D03*
X2855000Y3077500D02*
D03*
X2859704Y3135021D02*
D03*
X2538750Y3499000D02*
D03*
X2739364Y3624204D02*
D03*
X2632500Y3407500D02*
D03*
X2585150Y3653918D02*
D03*
D33*
X3065000Y3102500D02*
D03*
X3265000Y3022500D02*
D03*
X3105000D02*
D03*
X3065000Y3182500D02*
D03*
X3105000Y3222500D02*
D03*
X3065000Y3022500D02*
D03*
X3105000Y3102500D02*
D03*
X3065000Y3142500D02*
D03*
X3145000Y2982500D02*
D03*
X3185000Y3022500D02*
D03*
Y3062500D02*
D03*
Y3102500D02*
D03*
X3225000D02*
D03*
X3305000Y3062500D02*
D03*
X3225000D02*
D03*
Y3022500D02*
D03*
D34*
X2540000Y3242500D02*
D03*
X2832500Y2867500D02*
D03*
D35*
X2730000Y3692500D02*
D03*
Y3567500D02*
D03*
Y3442500D02*
D03*
Y3317500D02*
D03*
X2490000D02*
D03*
Y3442500D02*
D03*
Y3567500D02*
D03*
Y3692500D02*
D03*
D36*
X3296000Y2895000D02*
D03*
X3169000D02*
D03*
X3042000D02*
D03*
X2915000D02*
D03*
Y3685000D02*
D03*
X3042000D02*
D03*
X3169000D02*
D03*
X3296000D02*
D03*
D37*
X3140000Y2605000D02*
D03*
X2697500Y2610000D02*
D03*
D38*
X2595000Y3192500D02*
D03*
X2725000D02*
D03*
Y3092500D02*
D03*
X2595000D02*
D03*
D39*
X2480000Y2970000D02*
D03*
X2570000D02*
D03*
D40*
X2654644Y2965000D02*
D03*
X2750356D02*
D03*
%TF.MD5,4772718ff1860566ff1428cf30bd02ca*%
M02*
