%TF.GenerationSoftware,Altium Limited,Altium Designer,24.10.1 (45)*%
G04 Layer_Color=16711935*
%FSLAX45Y45*%
%MOMM*%
%TF.SameCoordinates,0DFC8F11-482D-4AB8-A3BE-AF813C361F11*%
%TF.FilePolarity,Negative*%
%TF.FileFunction,Soldermask,Bot*%
%TF.Part,Single*%
G01*
G75*
%TA.AperFunction,SMDPad,CuDef*%
%ADD39R,0.70000X0.50000*%
%ADD40R,0.71535X0.67248*%
%ADD45C,1.20320*%
%ADD49R,0.70320X0.65320*%
%TA.AperFunction,ComponentPad*%
%ADD50C,1.04320*%
%ADD51O,1.05320X2.10320*%
%TA.AperFunction,ViaPad*%
%ADD52C,0.50320*%
%ADD53C,0.40320*%
%ADD54C,0.70320*%
%TA.AperFunction,SMDPad,CuDef*%
%ADD55R,1.51320X0.73320*%
%TA.AperFunction,ConnectorPad*%
%ADD56R,0.65320X1.05320*%
%TA.AperFunction,SMDPad,CuDef*%
%ADD57O,1.20320X1.72720*%
%ADD58R,1.00320X0.90320*%
D39*
X2480000Y2970000D02*
D03*
X2570000D02*
D03*
D40*
X2654644Y2965000D02*
D03*
X2750356D02*
D03*
D45*
X2472500Y3150000D02*
D03*
X2470000Y2822500D02*
D03*
D49*
X2665000Y2852500D02*
D03*
X2590000D02*
D03*
D50*
X3045000Y2725000D02*
D03*
X2785000D02*
D03*
X2980000Y2625000D02*
D03*
X2915000Y2725000D02*
D03*
X2850000Y2625000D02*
D03*
D51*
X3272500Y2703000D02*
D03*
X2557500D02*
D03*
D52*
X3365369Y3142435D02*
D03*
X3348241Y3191932D02*
D03*
X3359855Y2985286D02*
D03*
X2837500Y3242500D02*
D03*
X3198424Y3518698D02*
D03*
X3330000Y3510000D02*
D03*
X2455000Y2915000D02*
D03*
X2470000Y2822500D02*
D03*
X3380000Y2755000D02*
D03*
X2940000Y3332500D02*
D03*
X3319314Y3299285D02*
D03*
X3290267Y3389954D02*
D03*
X3261908Y2871523D02*
D03*
X2768910Y3698548D02*
D03*
X3350000Y3707500D02*
D03*
X3348500Y2887500D02*
D03*
X3089960Y2827446D02*
D03*
X2967500Y2840000D02*
D03*
X3361587Y3626587D02*
D03*
X3362835Y3575316D02*
D03*
X3225000Y2942500D02*
D03*
X2830775Y3525289D02*
D03*
X2958057Y3452277D02*
D03*
X3073618Y3410042D02*
D03*
X2540000Y3627500D02*
D03*
X3032500Y3562500D02*
D03*
X2639383Y3634152D02*
D03*
X2913500Y3602500D02*
D03*
X3025000Y3022500D02*
D03*
X2855000Y3077500D02*
D03*
X2859704Y3135021D02*
D03*
X2538750Y3499000D02*
D03*
X2739364Y3624204D02*
D03*
X2632500Y3407500D02*
D03*
X2585150Y3653918D02*
D03*
D53*
X3065000Y3102500D02*
D03*
X3265000Y3022500D02*
D03*
X3105000D02*
D03*
X3065000Y3182500D02*
D03*
X3105000Y3222500D02*
D03*
X3065000Y3022500D02*
D03*
X3105000Y3102500D02*
D03*
X3065000Y3142500D02*
D03*
X3145000Y2982500D02*
D03*
X3185000Y3022500D02*
D03*
Y3062500D02*
D03*
Y3102500D02*
D03*
X3225000D02*
D03*
X3305000Y3062500D02*
D03*
X3225000D02*
D03*
Y3022500D02*
D03*
D54*
X2540000Y3242500D02*
D03*
X2832500Y2867500D02*
D03*
D55*
X2730000Y3692500D02*
D03*
Y3567500D02*
D03*
Y3442500D02*
D03*
Y3317500D02*
D03*
X2490000D02*
D03*
Y3442500D02*
D03*
Y3567500D02*
D03*
Y3692500D02*
D03*
D56*
X3296000Y2895000D02*
D03*
X3169000D02*
D03*
X3042000D02*
D03*
X2915000D02*
D03*
Y3685000D02*
D03*
X3042000D02*
D03*
X3169000D02*
D03*
X3296000D02*
D03*
D57*
X3140000Y2605000D02*
D03*
X2697500Y2610000D02*
D03*
D58*
X2595000Y3192500D02*
D03*
X2725000D02*
D03*
Y3092500D02*
D03*
X2595000D02*
D03*
%TF.MD5,dbf8e4e689097c5081ee51ded8427754*%
M02*
